<mxfile host="app.diagrams.net" agent="Mozilla/5.0 (Windows NT 10.0; Win64; x64) AppleWebKit/537.36 (KHTML, like Gecko) Chrome/130.0.0.0 Safari/537.36" version="24.8.6">
  <diagram name="Page-1" id="J3HNWWAA5JkZACZ07UuI">
    <mxGraphModel dx="756" dy="425" grid="0" gridSize="10" guides="1" tooltips="1" connect="1" arrows="1" fold="1" page="1" pageScale="1" pageWidth="850" pageHeight="1100" math="0" shadow="0">
      <root>
        <mxCell id="0" />
        <mxCell id="1" parent="0" />
        <mxCell id="HqbXLtlGMCv74YAIJCJz-1" value="" style="shape=image;verticalLabelPosition=bottom;labelBackgroundColor=default;verticalAlign=top;aspect=fixed;imageAspect=0;image=data:image/png,iVBORw0KGgoAAAANSUhEUgAAAisAAAEWCAYAAACnotfGAAAAAXNSR0IArs4c6QAAAARnQU1BAACxjwv8YQUAAAAJcEhZcwAAFxEAABcRAcom8z8AAPGlSURBVHhe7J0FWBXd+vbPd95z/qfeTt+0GxOU7u5uBRtRRGyxAbu7C0wQJRQVEQOllO7u7m72/c0aZhOCDQg4v+taF8ya2XvPnj0z655nPfE3islUc6HaY7axjW1sYxvb2Ma2PtTuUU2CavQ/YBvb2MY2trGNbWzrgy2WarRywYEDB/D48WO2sY1tbGMb29jGtk/erl27xhUrqa1ihaxgYWFhYWFhYekLpKamsmKFhYWFhYWFpe/CihUWFhYWFhaWPg0rVlhYWFhYWFj6NKxYYWFhYWFhYenTsGKFhYWFhYWFpU/DihUWFhYWFhaWPg0rVlhYWFhYWFj6NL0iVrKzs+Hv7w8XFxecPHkSW7Zsgbm5OWbNmoXZs2f3aiOfOWfOHKxYsQJ79uyBg4MDHjx4gJiYGFRVVTF7zPImsrKyYGlpCRMTky6P8efYyHm1cOFC+rz28fFhjhQLCwsLS3fQI2Klvr4eT58+xd69e2FgYAAeHh5MmTIF0tLS0NTUhKmpKZYuXQpra+tP0latWgUzMzPo6+tDQUEBIiIiGD9+PISFhbFs2TJcunQJKSkpzLdheRVbW1uMGjUKa9as6fL4fq5t0qRJGDFiBAoKCpgjxcLCwsLSHXSrWCkuLsaxY8foQZ+Pjw9ycnLYvn07fH19kZubS1suOBwOs3XfoK6uDqWlpYiPj6fT+ZKnZEFBQXr/ieXg5cuXzJYsBGIlIwOyt7c308PCRUpKCkePHmWWWFhYWFi6i24RK4WFhdi1axf9ZCkmJkYLlpycHGZt/6OpqYm2DBGzPhmYiXWITBWxAGvXroWysjIaGxuZHhbC6dOn6fO/srKS6WFhYWFh6S4+WqzcuHEDkydPhqioKK5evTrgbtZxcXFYvHgxPe2xYMECFBUVMWs+P9LS0jB27Fjcu3eP6WEhVFdXY+rUqaxVhYWFhaWH+GCxUltbi9WrV+PXX3/F7t270dzczKwZmISHh0NGRoYWZsTq8jmyfv162seHpSOnTp2iz4vy8nKmp2e4f/8+7Qe2b98+tr1j279/P/03JCSEOYr9B+L7d/HixdbvwDa2DeR2/Phx+oH4dXyQWCH+HcQplfh2hIaGMr0DH3LzIM6lf/zxB3bu3Mn0fh6QCCBiXfLy8mJ6WAjEkthbVhXimE5+A3V1dba9Y9PQ0MCgQYPom2F/o6ysDBMnTqSt1vT3ob6LppYWtLQ0qe/V+bv296apSb4b1TQ16N+NBGOQv3Qf1Qbid2ZbS1NVVcVPP/0ENzc35uzvzHuLlcTERNqPw9jYmHZM/Rwh0yDkBrh582amZ+BDrGjkhGpoaGB6WAjEqtJbvirE4Xvjxo3MEsu7QgY6kqagv0HECnH0f/LkCdPTQkNDE/PfAITThKZXYjCaGgfw92WhIYYAEi3s7OzM9HTmvcRKXl4ehg8fTqvdz51Hjx7hyy+/7Jc3wfeFmObGjBkDT09PpoeFwPVVIQ7lvQGxrGzYsIFZYnlXyBM6mT7rbxCxMm3atNbIu5IIV8xUEIaK4TYk9MSMY3Mjqmtq8GniNWtxdaUJhERlsOHyU+SGO8HAYg0Cwp9hvaE8ponp4kZUGbMty0CD3EuJWLl58ybT05l3FitkPp6YI0kkCHljFtAmq6+++gqXL19megYm69atg5KSErPEwoUkOCS+KhUVFUxPz0LECvEbYnk/+rtY8XrYYlm5MEca0otOILuoEo09oCh8L+yC3UV/Zqm3KcMuLSHM2nwdBVUNqM6Lgut9b+RV1KIw1gMq8vzY+7T/RpiyvBmS1qTbxMry5cshJCTEhma+AsmAO3ToUDpqaCCSmZmJkSNHsnlVXoFcXCTRYW9ZVQisWPkw+rVYmc6Pp4+8kRETAJNpUyC19ACCE5lBu7EEAV534OrhjfRyboBDIzLS45FelIfgZ3fwOCwFnSdumxEf9BAuLq54GZ9P91TnBWORPB8EtNfDPyEf1SV5SEwqQHrMC9y+74eC6hZ1VJEVCQ9XV3i/iEfHyZkmpIb7wtXFBfceB6GE+dDGshyER6VQD7s5eHrXDV6BsS0rylLhST3s+cVktiyjFHsMpbH2QjC91FRTjNSMLNSRhcYELDCQxIFnufQ6loFHt4kVkiqfOJUGBQUxPSztmTlzJnR0dJilgQXxVVFRUWHzqrwCsaoQsdKb4p0VKx9GfxYr0/kF4Pv4ASK9jmDa4N8xTFgZp72iUJ7yFMv15aGqPROmhlqQENXFDf8s6lWNOLJGDCMl9TBbTw/WJ13RYcaouRDXbBZCR0UXixaZQllSHrbXA1Ca4AjlScMxdIoijj1OQwr1eZPGKMHMYg6MLLYjqhiIu3MEsoLC0Jk5C1rKcjDf5gx6YqY5HyeXzYKCuj7MFplBWXQqFGduQUotUB98CdN/HwflmZZYYT4TokIiWLhmL9YvXQHzGdoYN0wUB+8nU29Sh/1G0lh1psWyU+h/CIIqBgglFVDqYzFXjxUrA5luESs1NTUQFxenk4GxdE1SUhIdpUEy4A4kuHlV2IR4HSHToGT6h4Ta9SasWPkw+vs00ENmGuigriJmniMPjM04Ok8UEnP2oZSYHji1uGNjgqlyq5DTyMGZWRMxSXYTYw1p7uCD0pR2B8LDh+PE8xYJk+1zEev2XaUtGJdWzcAMu5Zov4y7W/DzqIm4Fd3iJ9KY+xQavJOw8UY0vYzSIJhKimPr7WQ0l4TCxnIzfDIZc0oRte0UXlyIotRKnBME/m841jlG0/sRf20dfvp2Gs74ZdOb3lqnDdFZe6i9BA4bt4mVosBjkNA2QTgrVj4LukWskCdIUtunt+bl+ysHDhzo9Sftnob4qhAfJZaOcH1Vevu3ZsXKhzFQxMp+HUWYngumFEcsjOUFcMy3XTRmvg+kRcVwP6UEpxbLYdaejhFErVTnYu9sJUwWV8Mss+U4d9sPlbSaacbZ5UaYYXOf3izZ1RbCSubIYJRO8h0bDJ4oBHuvYPj5PkNgkD82aE6E5MK2kP3CtFg8f3IPlw9bg49nCi5FU+Il8gqER6jhPlMuq8LnFITE5iGc0TWxl9dBTW8jaqj/j8yQaSdWjkNSx5QVK58JHy1WSNp5RUVFbNu2jV5meT0kjJuIuoFihWB9VbqGCBQiSk+cOMH09B6sWPkwBopY2aetAJOzL4HGKBgqCePUi3YTPAXPIScujLsJxTi5RgkLzj1nVnRFM8K9nbHWchYUpIQgomeNjKpGXFlFiRXbFrGS5LoDEqqbQSaW6OXbNvjtzyH0FJCxMbXdzJmYY2qCpecfoLYkDXsX6UNFxxgzzJZi564NUOYXwbWYekasKMODsboUex+DoNgcvGQK3IdfXA01gy2sWPnM+WixQhK+kZBVklulV6ivREFeHgpLmTO5n0EqSRP/lYHAu/iqcDj1qK6o7pHIhPY0vZp4gaGmppK2+LW1clTVUDdIivq6KtTUtdwgG2pqUN9NO0lEChEr5OLqbXpbrDTU1bQew4+lODcHhWW0u2SvM5DEyoxTAdR/1dhtxA8lqwtoOdsB36MWmCi4ECk1jTi6XB7zT/swazpSlx6I43tPI4moAwpO1BXwj+bDw7QKXFttBN1NLaU0kl23QVxlPbjur9Vxt6AmKIFrreHDdXA5uxtOL9MQbb8KQ4drIYLZmYrom+CnHtyOhlS0ipU7rFhheQMfLVa2bt3aS+nV6xDgchj6StIQFRGBkIgQZljtQ3ReLbOeWC6KUUGp//elubEaeQW9E59P0qFPmDAB+fktHvZ9ifcph0BOCiJS35atNv6GDRSlViK5h3xv64piceGKPWLzOieFqku6A6kx3+Gf//gH/tHa/g3dVeRmWwtrI1msvxEPlLzEbFUl3I77+IGSXFBEqHS3rwqpRE6smG+jt8XKxY060N5wnln6QBryccF6LuTE5CGroI3dV/1bB9jeYqCIlW3ywlA/2HJvLop0hamCGHRNF2OpmQlEeWVw5A6JtGnCtnmCMDryiN7uVZrL47BJWR4ScoZYs3ENTDSVMXv1eVQ3c/DiijVGjhbGwSuRCHffBj7J5UhnXkfe1/fsZsjJKGHx6jUwN1aHoJwJ7qVUoyreA3qS06BuugTrN6zFMnMDjBj6J5Z4JIMT6YCJP4nBJb1FrBTd34/xk/Xhz8yghpyygKTKGkp+dRQrhb4HwKeggxCyHStWBjwfJVbIEzUpeX/27Flm054j4ymltidLYsflh4hKSEDIszuwkp+AMWqbkU/G2JooWM5ahqcfUEMw+Kwt5u5tMW32NMQZWVhYGI6OjkxP34H8pnZ2dvT0ztvgVlZ+Gx7rDDBSwwY95bmR7GIDfuU16MpbKuK0FUaMlMX+8+dxvrVdgk9IIbWWg5jAAMRk1yPTm3oPYT1EdUNqICJSiK9Kd1tViFghwpCUcCAD1OvobbGSEfsCgTFtw9X7w8GDQ2YQllqE0KQcxDw7D9lJ4rgQ2Ltivv+LlZap2Nhnj+GXyDh/UHDK0uB+5SxOnruKsEzuVdiImKBHCExq264TjaXwvXOFthI6PwymrRo0jcV4cv0SnD2iUZiXgEdPw2kR0Z7MiKe4ePoELjh6IL2sTWCXp4fj6rmTOHf1NtKKq5AW6UPvA6ciHV7uT5Bd3fKwVE+97wOvABQzDzilKaF46htJSaFqOhpozYWWiNP6ogR4P/NHKfkIErqsz4qVgcxHiRVyofDy8rZaWXqSe1vVwK/wSq2dbC+st96GxNoaBF1cj+G/jMGCAw5IK2sx5+fFBeLamVM4ff4yXiQwNz9OBcL9I5CQEAe369dx8/YDrBadgKGSprjrG/5KXoCegdQ56Is3RmLtIT41v//+O7Zv346MjAxmTUdIP4lsevjwIdPzGjhl2DKTepra5kEvJsQGIKGiEukP3HHR3gGe8W03y4Lwl0hMz0dGyGNq3VVEZrQ9W+fEBcD7RVRrxEJmjB+eRSSgODkKq1R5MXaKCe6EJHWIaCBcW6ODqYvOMUsd4ZRmwM8vAkRS+B2ZB3GzA61P8yFPbtHF4S75RDE97wbxVSFp9YlzbU9AIspIeoDRo0fToqigoPNg09tiJTspDGGJLVEbbTQi0tcdZ86c6dgcriGh6BWbSX0iFksJw9arLZmXEyVw1VdcoaM/eov+L1beci0OCEqxS0cU5ns8UFnbbuqxqQGVmT7QVRPGPh82KdxA5aPESnZ2Nl1EqzeqlRb4nYX4mHEwXLkd93wjkFvYPjNADTx2mGPwz0OgZmWL1PIG+F7eAlkZTSxdvgaLTdQxZbo8TvtSN1VONhbJSoJPwRTLVq3E1sMnMZ9vHP7kk8Mp9+ddJEfqfkj9Fmtra2apb0ES2DE/Nj0oEtGSm9vxaWXVqlVQU1N7e16VikAYUuJn711i7qrFFulR+GXqdAj89gO+oN7///Gq4VkmkRh12GkiDjXdhdCfPIxeN2i0OV7k0I9M2DdHAJrrXBgxUo6txtNhceQxHl1cg79T2/7fv/+FGTucOoqVpmys0BoD4x0eKKQGdTKwk1ZYVEr7z0RfX4+JsgtBbCyOFpqYuZ2UCajGla1aGPTDf/HFF1/gbz//joVn7r/zoEkEBBk4iPWspyClG7i/DxFGhw4d6hCFR86t3hQrJ5fLQmbZK1NenGq4H18FLS0d6OnqtTQdHWibLKIEakcbGyfdGwri4rid2PaY8PSkGabqr2rJz9FLELFCKhf3Nz4vsVKFs2bqmDRNDKtP3aZDqene5EdYri2FMVPk4BBazPSyDDQ+Sqy8fPmSvlDS0z/GDPzupD2/gvmGGpARm4Yhw4ZCZc5qeEUySjrDE0oCGnCnHzYr4HZ2P675cf3UgaOzBaBhRXwVKmCp/Cdk1l1vWUHhsWoGZNf2Xv4TUrtl1qxZtGmfNOIr0hca2RduyQTmB6cbqfVEREtOTg4tUImIeZebY32UE/hHysGJxDaWv8DUP/6NX5SXISC3BBUpDyDPPxWXIqlBipOKGSL/xUQVW8TnF6KMuvlojv0Jiy9GUm+SjIVq4jjyjMgKiupozJITxcEX1WioDYO6pAgOPUhGXcMrwqk0BDMHt30HbvtphDkyKPXhYWcIjWW3qA0zsEhOFicDqpByczUGj+XHteAWi0WuzzbICYrAL/ftcoVYVYiVkWtV6er4fmwjv09hYSHtK9T+OxFrGBFKxcXFWLhwIR1O3ltcWK8JjXVdW6/ehebkexCWEodXWpvUjLm2ASqaq/CqvaYnIWKFW8Orq2P/MY17jb+Lz9H78nmJFeIIX4XC/Fzkl1S0Ppw0N1QhLzsHRcWVaGju8MjCMoD4KLFy69Yt+sU9nkuC04TyiuLWk7MiPxVPH9yCzXwpjJqkAV/yBJ7pCUV+ddzMaBu0itMj4HnbBfZn9kJx0kjoryIOZcVYpiYBG+eElo0o3JYbQHrVJWap57ly5Qp+/PFHyMrK0k1GRqZPNLIvpGry+PHjOwyG3DZu3Dg6+Z+uri7zTd5MgusmTFaeizTq56kK3g8ePlG4c0egnCcwlp8HElnJybgNdXkBuCS2ObieMlPE8tNBaEpyh6S4KgIYX6SK8IsQk1AHpS3ASb4OJYPZCOqisHf5CwfwDefDpnM3cONGW7vjGY0G6gltv5kkll6Mou723lCXU8WznDIcmC2C/3w3nDoWUpCQkIC0+HQM+pkHZyLf7sxC/GH+/ve/Q0xMDPLy8p2ObXc08vuQNAGkdENXvw8pmEh+O+L03lt0LVZqcfu0NXR0dOlzhdt0TM3hndTxWDaneEJKUhwPUtsGGf+zSzBdZwU+wP3sgzEyMqJFOYlu6+rYf2gjvxnx67OwsOh2PybC5yZWWD5fPkqskPwaIiIiXc6ddyvNhdhqLA7L84FMB5cMzBAei40eWdTg9wAKlFhxIYaW5hI4b19MDbx6WGy+CPtOnscSDUEYryEXdAElVjSw1TWFfgeCy1J9yKy5wiz1PMR0P336dNox+dy5c/TfvtLIoEtufswP3trI0zvxh/j555/x9OlT5pu8metrJCE3o6UuzosT86FqvrvVUS/RwxqSRptBdEb89XUQ0V6LkpZV1ONTHIyExmOPdx4Sb9tBxnRbqwOtm7UKpoqvo4ZDIO70cmgt2NPm/NeOp0f1MU1rGe2T0omilzCQFcetpAaUeO/HZIVFyCjNhoUyLwQU9WFMDVxGRsYwob7vgnU7EFn85qc1chGRY7Z48WJ6Gq2r49pdzd7ennbgffX3IQJmy5YtkJSUhI2NDbNnPU+XYoVTjygfV+rcvgj7i/Yt7cIFnL/sjOi8VyKuKsIwW1wUx160KU6PnSaQMjvcK1OyXIiYItYV4qvU1XH/0HaB+t7EikqsbsRq2d2wYoXlc+GjxEpycjLtsxITE8Ns2lM04dH+BRgySQE3X6Sjur4ZDTVlCL29G6ITJeEWTw1d+V6Q5pPFTRLIUuoNgaE/Y4d3y/wlpzwBluIjoWZxm1oqosSKCmxdkuh1hFtrdCC6+MNN2e+Lubk5VqxYwSz1LUi+nO+++651EPzzzz+xadMm5OXl0VNBGhoa71gDqBzbFcQwc0eLsNk7Twbz9xO/kBaur9OC0c4b9P/eJw3x75/FcPV5ItLTk7Bv5jj8IDwbCdRD+K3lypBYdgKZGWnwumCDv/77PyjaEYduDs6t0IfpGnsUlr0qVziwNxOHgun5Lh2ma6KvQVxUDxGUkvHaNQvi88+C01yDFTpCELe5TafKr67Mxq61q2B7M5x51eshhQqJVaO+vucDbsm11v73GTJkCGxtbZGS0iK+582b17vTQOs0oG79MddOLc5YKENmznGQzO8NxaGYIypKHfd4Zn3vQM7rI0eOMEvdi4eHB21xY8UKC8uH81FipaioiH7Ke/78TZkQu4mmPFzcMgvTeKdCQkoFsjJimCYkiz2OJAESRUMmbLWFwCe3CH6JKbBfOxMC1HYLF1tiGSUO1EWnQHzmUTQ2F2OJoiw23mibBkp+sBcCg8fD8qgrk1a6ZyFPcX0146+BgQH9Yw8bNowWKUSQEoiTLfGVeNebIqfIDzrTx+NkQAX128RjxnRBbHZueS/Up2C+zBRscCQDUjX2WqpAb9VyaE76iv7sESJGuBXVYmdJurMNQ/5OTr7/B1kDPfBNEsWhx2QuqREXrHjp7dWOvZLcqjYVpgJTYHbqBdPRkZAz5hBU3IAyNGP/XEHM2tny+vSAK5Ae/2/6Pf/2z68wSdkGvilvnuIkzq3kGuipCKD2EJ8HbW1tev/IlAWZ7iE+RO3p7WigM6sUobDy4757ZaIPzCQkoKpmBE0lKRhbnUAXaXN6lJ6MBnJ2dmbFCgvLR/JRYoVEPfDz88PV1ZXZtOcpSArDfTdXuN1/gqT8jk/UNQWJuHvnDhKKiENkDcJ87lFfzAPR2eVorMxDWGQSmjiNSIoMR2ph+9fWI8b/Ae75RaC2F8QKOeCnTp1ilvoOPj4+dFFC4gBMChS2hxsB9K5wqvLw4qUfiojVv7EYYc9fIIebc4FajnwRhHwyR1MWBGNBcVyJqUNpoh88PT2R1kEf1CPax5vq90ZFXSPSEtKo17W8T21eGh56PUBY3iuCor4MgcEvkFXR9YhXGBeJkCQSyt6M5NgQJBa2vb4iK4DeB88nAXiXuALi2Npb2WqfPHlCh4yTaZ5Xfx8uvS1WcpIjEJH88eGinKocPHR1wT2fcHqKr7dhxQoLS9/mo8QKYc6cOfRcPcu7Qcz4JINtUFBLYqO+RHh4OCIjI5mlNsjASCKAeqIGUFXoVfALKaM/5nIijuVkGvT06dNMT89Czpm3lbXobbEyUGDFCgtL3+ajxYq7uzttBm+f64Hl9ZBcDuSAk3DG/gLxryFWlZ4IvYy7uwczVx1FcW9mAOsmjh49Svuq9Hg03HvAipUPgxUrLCx9m48WK9yLpS+mj+9rkMGeRGuQaKD+AvnxydTDo0dd1xH5WJqbGjsmc+snkIGHTP/0hq/K+8CKlQ+DFSssLH2bjxYrhCVLlkBLS4tZYnkd/v7+tOMqOaD9hZUrV9LlAVg6QqwqRKyQyKG+BCtWPgxWrLCw9G26RaxER0djxIgR9JQQS9fU1dVBTk4Oy5YtY3r6Pj1tVemvcGsA9ZavyvvAipUPgxUrLCx9m24RKwSSqrq3oiL6I6SQG3FSJenS+wvEqkJ8VUiqcJY2Dh8+DD4+vj7lq8KFFSsfBitWWFj6Nt0mVsiNm2SzJQMcS0dINA2Z/ulPfj3cCKBXf+fPHTI4EKtKXww9J7Bi5cNgxQoLS9+m28QK4dmzZ3TNG1L7hqUFcoDJjUpfX5/p6R+QCCCS1ZOlI9wIoL7mq8KFFSsfBitWWFj6Nt0qVgikNsovv/yCO3fuMD2fLyT9OhnwSSEzUhG3v8D6qnQNCc8nOXJIPae+CitWPgxWrLD0B5qbPt8p+W4XKwTiePjHH3/Ay8uL6fn8qK2thbGxce8UeuxmyFQeqb7M+qp0hISc91VfFS4mJiZ0QUOW90NHR4f2u+sJPgex8vTscuw76/xOxSfTnl2kH4b0drjg1TtM2PkVGD1pOo6FtpY17VbqkzxhKjsHd9M6lz9tSn0IVQ11PMkkyRSaUVVdjfp3KYPWTXBKQmEmNwqiixw6ZXGui7+FSSN4sP7CS6bn86NHxAqBmMt///137N69m+n5fAgLC4OEhASEhYWRmUkqK/YfyI89cuRIOrU7SxulpaV9NgKoPTNmzKBDza9evYrLly+z7R0ambYmInTXrl3MUexeBrJYqStJxIUtszHoX3+DzuZLTO+biXHbgX/8/W/4dfICRLY/JI2FsJ1FKor/CjvfPKaze6mNvA6BQcK4mti56CinLA03bjojoxqojLgB600n2yrB9wJ5T0+B7//9Pwzi24cOCb2binBswUR8NU4c23165rj0B3pMrBBcXFwwfvx4uvhaRkYG0zuwIdNgpFz/ggULUFLSm6d690BCq4lJnKUjpCJvX/ZV4UKmMsi0I9vev926dYs5it3LgBUrzeU4tYoffNIG0FIVhKHtu4mVSGdbjJUQh76KAg48bMs5VR52C5Zz5SHKq4SdT9rGi4LkELi7usInrK0eVn1ZDsJjE1BdUQS/B2647xOGjldmA2L9PeHq8QR5pZWIj41AfjUHDbHOkB6tAufYbAQ/vgP3Ry/RWkKsrhJpGZmoLCuE/RotTJishKs+UaioKEZYeATKuWajxgpEB4cjp4YSOJXZiExMQ2VVAXzvueHes3CQcmhtNCHW7y5c7z1GbnkZUhKikFfZdSZwP4f1EJsmBFn1LYgoYzopUu8cwwwFTViuNINHCrMTdal44uUFL6/HyHvVDFOawazzQlpx295UZiYjt6AStQWpeEit84tJZ9b0D3pUrBBycnLoKsOkYi+54ffEBdsXePHiBS3KiFC5du0a09u/SElJoSOAWF+VjpBztq/7qrD0XQasWGmqRWyoH0qo8fOajS7Urc8yK95MhNMG8GguwLEdy2C69gq4My0PTm3BSttDsFRWh+2jLLrP32ELxKcIQcvEBJqyyrA+/oDevjzIHqPGjISxxRpYmptCSmAajNdeRBGdDrsA9utNICOrCJPZczBHVxJ/DBuJW0nNQPp9yP80FCLa87Dc0gwq4tOguHgvMoihJfUu+MXE4R0WD2tDAfz153gs3X0PGaE3MV1UHK3GnmJ/aEwSw9G4ZnCizoJv2igYzJpH7cccSAvyQtv6EkrJdpxinLeeCSkZRcxaMAezNGXxx2QRXIvuahq5DqcXakPfzBYb9XXgEc0okMp4rNY1xga7fTAzWoMMSnvUxjyEucRg7qCMiXprEVjQIoCy/J2hzju6dd14SX08SWr5vMfb5mHiuOmQ5eeh1/39l2Fw8Gcq4fcDelyscDl7lvpR+fjomz6ZG361tH1/hUyXEDFGLEjEuTEuLo5Z0/9Yvnw5nVelP9Ut6g0OHjxIDwjkYmFheV8+B5+Vc9Ya0LB+NzEf4bgBozUsEPTUBTNUTRBKxlJOLvYsmg3HwACskZXDVr9iNKd5QHLMBBz0bJlKb0x9BC0BSZz3LUFzrBO+GzwWG10iaT+Z6vBLmDpeHI7Zjcj32g5+YW08ySQDfgP8z1lg6KAf4UqMOBn3IPWvP7Do5HPUULe5pmxPyIzlxwm/aiD/EcQkJfC8EMh1s4G69moUUS9pinaEgJQc/EmhdkJJIPT4ZXEqgRI/sRfA++sfsHOOovejIvQKeHnEcSe9Gel3t4FXSB++WUQJNcDvlCW++ksETnFd3EeaU2A+XQSWZ2/i4GxtnAkknwyEXlgEo9k74XBgEWSWO9ACaKPKSIybfwCZFRWoqEiFtcoUmO/2pv1/fPbZYvlaZxRT68rLkmAhPBX650KoNQ3YPnMovvh2FI7dDUNKaiTMFcZh3uH+82Daa2KFQD7s4sWLEBUVpU3qpFqzvb09ndOjvzhzkmmA58+fw87Ojh7Yhw8fTpcbCA4OZrbon5AfmQiuvlgN+lPCtaqQpH4sLB8CK1Y6EuG4HkMVzVFYmY81xmrY512O+nR3mMzfg7yqVFiKy2BPYAHSr6/C71M1ccsvBP6+vngR+gQWImOhsv0R6qOdMEpYHs+41o7aKJhqSOFCSB5ubdGG9vp26TPKQqEsPQ2OsU1Asgskh8vDOZ1rz8nFMg1VbHGhHp7znkBcWpIWK9kuW6CmvQpEnzRSnyUoLd9BrBgIyNFihRN9BiLD1ODDzfVZHQdtWQFcDC7CLTs16Ni5MisoSn2hoyIHh4guiv5mP4KMBCW2ovJxdpsa1ngkU/sdhnnqyngUkw5bUymYXaKEWaIT/vz+a0xWNsQs6uHY1HQW5Cb+Dnmzg/TbBJzaiTlzZtP9CxfNx5SxY7D+HhF7iZg55XdY2sfQ21Fvjk2mC7HNJYVZ7vv0qljhQlLPk9T8s2fPpueKieMi+bt27Vo6OyhxDrx79y58qRM0JCSEFgK92chnvnz5Et7e3rTfDbEK7dixAzNnzgQvLy8EBQVpJ8Zt27YhKSmJ+Vb9G2JVERISQmhoaJfH5HNsxFHaxsaGHgz6uq8KS9+FFSsdIWJliNxcWgg82z0P83c74vmFTbA+5Un1ZGGRmDT2BuYj0dEavw+ZAKPZszDD2BgzqcF5tqkJ7G6Gojz8KkYJycOb69pSHY15hjJwCM6B4yZN6G6+zqygKAuHiqwgJVYogZLsCslhMnBMYKwbTelYqq4KO/ecDmIl4+YmqHLFSuR18Ekp4EWLsQOoDIahgHwHsfIwi7FGV8VCR1GA2o983LBVg8HO2y39hBI/6Kt3LVZS72+AIL8uUik95WZngSX7/BF4dwXmbrRHc0MSZojK4nI4Byl3FmPIb6Op8VKMjjQVFZeCqqo69t3yp6Os5MeMgiDVLyIiA8t5VhCTmgZn6nvXxztBQkgHj5nA1ObMhzBV0YJ7ckcPm77MJxEr7WlsbERgYCBOnDgBc3NzuiCiuLg4pk+fTltfiJD5mDZ58uT3btzXkWkrMoArKirSURYbN26Em5tbv4vweRvE+Zkc77Fjx3bLMR9IjVjOrl9vd+NjYXlPyIMZqbZeU9M5XJZce0RwfCh9VqxwmlBTXYX6ps5TyrRYkZ2FVGpVfYIjNJRUoWywDDeDySCeCnMRKWwLKEZ9uD3k+ZXgyXUqRQmu7tsL1+A8VIdewgghuTaxUhWFuXrSOBVWjvQ7myAoPQvhjDZM89qFSaN+w60k6gMZsXL9TWKFEiXZlFhRVFoGemzP8oT4RF5cCm15Tc7jUxg8VghnkzmMWFFtEyuVMdBWmI6L1HdJvLmeEjkLEMvsR8qd7Rg6SpwSTZ19Vp5unwMhWRvaOffhgb0wW3MeezauxVPq1GgIOgPhEerwpV6W82ATJkzVwEsmbVdJ2C3MtzuI2Frg5Z6ZGK+1ES0fV4qL66fhlz/1QNxfYq6vhbj+FnDPtKTbu6Coao7szj9Pn+WTi5WuaGhooBNw5efnIysri/Zv6c1GPpM4BpNoHnKDGej5RkhOmLy8PPo7f4rj3VcbORbkuLCwfAzcCt3knHoVIjKUlZXh5ORE3/fel74iVo5byUDG6jizRJHpDQmBEdjO+Ju0J/TScnwroIsE+qG+BCvG/hc/Slq2hOty4jBz4jSsfkBeV49bdhaQmKaK5eutMV9PCcJyFniWXYeaoLP4iUcQ97kBQpXhMFDiw04fMornYr+5GiSU9WG1ajWWzlbFSJ5xcKXEBRKdwPc9Pxy4gqEpFfOlJbDuZhalBB5iyjReeFGXfH2sOxTHjMFMm2MoqC3D5WXK4BVTxap1G2BurINBgrw4RYkfTsRRTPxeAvcymFG/IhLywmNw+CmleDj52LtAGWKqRlixdjWMtRQxTFAajq862HIqsVNnMgxt3OjF1NtnIDlIBEscw+hln33GEFJZAVqf1Kdjv64wvv/v/+H//u//MGj4WMw77IbyRuoQxN2B4uBv8QXV/9/vhmPCmJ/wg8Ry6gg3wn6+GBTMrjB5bZpwdb02JBadoY5w/6FPihUWFhaW/g4RJyQx5J9//okvv/yS9tU7f/48s7YNYnUh91RSld3V1ZW2Nr8rfUWsJIf5wCesXWRJVQ483J0QltXZmbQ0PRxuj/zBjeBNfnkXT14wvhOccrzw8kZEHvd1HCS98MS5Uydx2cUb+Yxxqr4oGe4PHiGPOzvbWIaA5w8RR23QUNcATl0ZAu9ew9lr95ARfh8qEsqUWCEjeia83R8hvYI5xpxqBD99iqgs6o1r8/HQ+yFymfeM97+Fi1duII8WVRXwcXfAyXM3kZibh6hIXySWUwKlLAle7k+RxzWaNZbj2WNPJJL9qK8Hp6Ec/veu4Py1+0gLc4GapAqcU1+RCNQ+BDxyQUhqi7mkqSQJ9y7eRyazH8nBnvAOim1ZIDQVwNPxPH0u3Q/u6HOS4/cQF6j+S04+1MNWIp6/DEUtJVYiHzyAXxz3wasJ0S8e4mUKd16rf8CKFRYWFpZuhlgr9fT06My4xBmf+OQR68mIESNoH7j2kLQH5CmZ3Fe/+OIL2tJCRAsp1/E2+opY6Uuke52FkcEqhOVTx49TAZft2uCVXYWUV/OR9DCpD45Da8ZqhBZS+9FcBkdrHUxTXo60Xt6PgQIrVlhYWFhegdwYY2JiaIfz920kfcG+ffswePBgNDU14f79+7QfHoFky5WRkUF6ejrtr0JacnIylJSUuDfZVtFCLC3EOZfUFXtdOgFWrHSGJGo7t8Ucisoq0FRRhf68FfCK7/2SJ81lWTixdj6UVBSgqaYIbVNrPI7nhg2xvC+sWGFhYWF5BZJi4bvvvqOdrInTOfE5eddGIgZJckUrKyv6vUhmXBINRIRLVFQU7bhPtiEigzSyjpS4+Pvf/95BsJBG+ogl5nV+c6xYeT2l+dlIz8ih86l8Skrzs5CemfNKZluW94UVKywsLCyvcODAATo0lFhJiOWDpCh415aYmEg3IiQI3NBlEjRABAuxpsTHx7duR/4nUYfMTZZu//vf/2BoaEhbZciU0utgxQrL5wIrVlhYWFheYf/+/bS/SXfwtjwrJAs2c4PF119/TWfCJn4s7wIrVlg+F1ixwsLCwvIKxLKioaHRLWkL3iRWiNWETB0RSwopfkpyTr0Pn1qsFEQ+xJYlc2BgaICF648itvDt4ddZQbcgJyePFec7p3pPdNsDBXUdXIn58Nwzb6Ih/TnWzLbG0+zO1qrmTD8sMDdDYE7LvFEzpxlNXdcc7DEqUjyhpyRKTxXy8UnC5thjcHch0HkX0z8dYlLSkBYTYpb5YHvlORqLwrDKQBzTmT4+vmnYcOYOusiX2y9hxQoLCwvLK/SWWCFZso2MjODv78/0vB+fUqxUxN+G3OQpsNhxCU997sHGVBmiuuuQWvlmJ5EYt230gPID7xIktdcMnHLsnTWZWvcNNj/vmfxGtRFXwfcDPy7Fd07Q15wfge27diC6BKhJvI89By8zhRF7h+qUu1Ae8TN4ZbToSDI9PQ06tb6+tQft7xLkdrClX18Lo374L/41fDqznR5OeQYh7to2/PLdn1Bh+vT0tDDx62+ganN5QPjLsGKFhYWF5RV6S6yQSJ+P+YxPKVYibuyFydzTaB32a4OhJ8mPo/5vjniJvLkVo4WmQ01aEad8c5heSiDE38OSuRKYwiOHXU/bksnVl+cgPDQUybltNoLG2nLkFZVSCqMOKTFhiEmhU8p1oCg9FqGRiahtAkqL8lFZz0F9jDOkRinDNbUcmfERiEjMQqseaW5ETW0d9d6V8Ng5C9OE9PEoPgu1dTXIzctDHdfEQX1mfnYuKogRqb4c+SWV1HvUITmK2o/UziKrKC0aoVEJqKF+5/KSfFTUd/17Pz+5ECNEltIFEbmE3doBYRlTxHQ4daqwVFsQ5tc6Fs29ZK2EqeYnmaUWsly2g2fIdDjH93/7CitWWFhYWF6ht8TKx/IpxUozmSNpf3gybkNOQBiXIt78PSOcNoJHYx72bDbDXDuX1rd4dnEHlq/djkVKGrB91CJWEh6eg6aoCGTV1KCkoIsjri1ZXcuCr0BASABL123GghkaEOAXxopD96hhnFCFB8fXQFlaAmrahrCYb4gp0/nhnkx9UtpdyP8+HirzlsJirgHEhQQxe9sVFFGrOKkPIK2kgiehUViiPgW/DhqBORtvIi3cHdKKyghoLWT4AkbCijiT2AxOjD2kFURhYbUE82doQVBACBaHPRkBV4N7R1dDQVIMGoaGWDTXGNOklXAjtnOiPELS46OYJsYP25OeaJ/jltNci8Z2x7k22RFy4/hwPaK9vSQby6XHYPHhl8wyl0wsleHDluvpzHL/hRUrLCwsLK/AipX3JRsb5fkhvfA4yt/i5xHhuAFjNC3ge+8ajNXMEEePucU4tHwWzj/xwVp5edj5FgH5z6A+YQxWn/ZHDYeDHN/LkBdQxK3wKjTHOuLbX4di0ZnHKKqqRYb3QfCMk4FbQTPKAo9BcJoMrodko66qEC7bdfHL99/BjaTmz7wP6X/8CL0tN5FbUYfi8EsQGMmPiyHUTuR5Q0RcDM/yOUhz3gAV9WXIon7+hihHTJeQgV+rWAmAzjRpnIinVsZewORB38PqmDeKa+qQ5nUQ48fL4mEOh9r9Y5jGKw/n0DzUVRfBZYshvvhVEDfiuxYrQCNeXl2E0UPHY5rAZNieu4uSzrNVyPHYg8ljDBDYzljSnO8D5TEiOOzD3UkGTjKWqfBj+y1uEaX+CytWWFhYWF6BFSvvQXUadmpJQkB0CaKYAntvghQyHKa0CHkl6bAyVMEx/1o05z7EHFM7pJclw0pcBrsDC5B90xqD+fTwLK0IWZkZyCtKxDrZKdDb9xwN0Y4YLiiHZ9xZl7pIzFCRxLmwAnhs1YPG6ovMCoqSF1CUmALHWEpFkUKGQ2ThnMH9XfOwTFUZNq4dCxnmuNpATWc1XciwKdoJgtLy8G8VK4HQF5Brq7o8VBl0SSJCTSy0pQVwMbgEt7erQ2ODE7OCovgp1ORkcSnyLVMyDfmw378SGlI8mCS5GWmlHc/BB7sMMFl/Q0utIIash7sxRlQJQaVMB5esh5CRkIR99OsEUv+BFSssLCwsr8CKlXeDUxIJSyVhiChvQvI7ukXQVZfl5tJC4P5mUyw6eBfhN2xhdYQU8svCIjFp7AvMR9y1Nfjlz3HQ0NWBJvVbaOloQ11BDpYX/VERcQ2jhOTBzBZRgikG8w1l4BCcjSsb1KFv204klEdCRV4YjjGNLWJluCwcE5nBu4kSTBqvVF0uBDJvbYKq9ipKygCNkdcxTVoBgVxXnIpgGAnKt4mVYWrw5lZdroqFjqIAtR95uG6jBqN9d1v6CSUBMNSSh0NE5wMVeMYWlofbbUvgpEFHbDI23IhiOgjV2G44FsabbjPLLTw9YAAxjZV4tdrP4xNzMFJ6NpIHgIctK1ZYWPo55AI9duzYa1Oys7w/rFh5BypTsM1EFhpWp/DqA/2boMWK7CyQWZmqsLPQ0J8B09krceUZUQPpMBeVwo7AYlQHHIcEvxoeZ7bMhXAai3DX/jzuh+WhKvQSRgrJwZs7u1EVhbn60jgTVkqJnGUQYaZwCGXB5zCd50/cTKSuDyJWhsngekKbWFmq/opYoUb8TOeNUFFfhRKyTeptCE0VhntSy/VVE3kDPDwiOEOqLtNiRRUPuWKlMgbaCvywDy5HhP0SCKhbI5+7H4EnwTNeAtdiXqm6TBHlaIZfeKbjZnTbkcyPvYPpY0dhu1s800PRmIgFU6ZhtUMM00GowE4NKWhs92SWW3jptgff/yiAXQ+TmJ7+DStWWFj6MaWlpXQNmf/85z/YsWMH08vysbBi5W1w8HSXDj0w6Fpswqa1q7Fq+XJYWe9DUC41cBcHQEdFGEeeZDPbtxHiYIWvpmkjgdRpbM6F+dD/4GsRM6SSQsicOMzgmYpVXlnUujKcWGwASfFZOHD6JLYsMQLvdAPcTqxEbdBZfD+OH/eJ4iFUhkFPYQp2PKPkRX08VmqJQcnUCvsO7MGKWbIYMnIE3FKo/UpwxJRv+WAfywiGplTMlRCDtTP1eTlemDR1MrzyKUESfAUSIyZi1embKKvNxwFjQQiozsOhY0ew1EgN/5k4ASeJWIk4Ap5vxXA3gxErFZGQFRyJw2ReqCYRy9SFoTRrJQ4e3otZ6lL4daoknLoQK83VsdikOBU//P4H/vrrL7r9PnQYNBftQmG7egFlL89g6MiplPBqZyqpT4TqlB/wt//9iMHMawcPG4FJk4Wx6qAvs1H/hxUrLCz9FJK+nVTo1dfXh5eXF8aMGUMX0GP5eFix8jY4CL1xHps2b8bG9etgvXYt1pJmexQhBdQxq0nBsYPb8DCus80lP+oRDl5yRQkRJxTBbkfh4BbUstBchDvn7fE4hZsUrgLPnE9jy4Z12H7wIiKzqune2qxQHD53CSncQ9pQAPcb9vBPZ4RAdSacjm7Dxl2nEfzUFcpSCriVSH1gSRzsDzkgqpgJEOaU4f71a3gaT72uKg0X7S8y71mPZ077YbP7CDJJLpjKNFw5bIN1NofhGxEFT68bCCYhRAXBOH/oGlK4Mzv1hXC6fAZBacx+VGXi+jE7bNp9BgFPrkJdVhmOSa+bk6mFh/1OrFixgm4HXF+N7KF+78SnOGnvAFJQupXaHFw7sxMbrNe0vnblus0Iy3l71e7+BCtWWFj6IY2NjXTtGElJydZBkCQYI09V58+fp5dZPhxWrPRf0h85wGr5YXD9YV+cN8MUYXNEV7VZKHqDtEfnYG59hPZ7IfgdXoCpEvMR26K3WN4TVqywsPRDSGr2yZMnIyenLakW4fbt2xg0aBBd6Zflw2HFSv+loSAatvN1IKemjRm62lDVMoL9s0Rmbe9RlxOF9TM1IKeuDmN9dcgrz8JV34HhP/IpYMUKC0s/Y926dfjtt98QGxvL9HTkzJkz+P777+mpIZYPgxUr/ZzmKsSFBeK570tklzPzTZ8CDrUfof547vcSORVvSUDD8kZYscLC0o84fvw4LUSePn3K9HTNpk2b8NNPPyEmpn3UAMu7wooVFpa+BStWWFj6CS4uLvjll1/g6urK9LyZRYsWYcKECcjN7Vw3heXNsGKFhaVvwYoVFpZ+ALne/vzzT1y82C4z51uor6+HsbExxMXF6YJ5LO8OK1bejebSFFzcsQIWS5bD/m5Yh1JBr6Mg5hEWL7bAYY8QpqeNbN/LWLJiNe6mdA7v7Q4ac0NxeMtRBBd0jpRpzg/H1h3bEVnYzhG3N31y6zJxdudirL/gg04TRqXRWGluiYse72sprcb9i6fg7JdH3RAysG/nVgRm9M8McaxYYWHp47x48QLDhg3DwYMHmZ53p6amBqqqqnSrrmbDEN4VVqy8ncaSSFioTIOa2RZcPHMAejKiWHn8Kd7mIRLjupUeUL4TWoWsDhvX4sQ8Xmrdv7ChNY9+91IbfgVTv50G+7jO10Jzpi/mL1yAQOqj67L9ceHSbRS1L4Hcw1SEXMVk6rj8d9J2dKxb3YR7OxXxt3/8imU3E5i+d6QxAfMkJ2DDLepLVYZgqdlKPMv8hD48HwErVlhY+jDR0dEYPXo0tmzZwvS8P0VFRXSIs5GRER3yzPJ2WLHydhJu74WaliXSGDNA6m1bTBI3QepbBvioW9swYioPZERUcCm4zeJXn/4ES+YKYdQoSezyyWJ6CfUoKixEZTtjCKepEQ1NLWaPipJClFV1/tCmmjIUFrccc05zA125uC76BiRHKMItow7VZUUorujCykBtG3DKEuIy8xFRUokm6hwgVspmrpWFQy3X1YP++GZqP5hTpKK4EKXVXexHdWnrfpD3bmx9o46E3bCFyKgx4FfajwSS24WhItwVs6UFYGhlAaf4thV11INITU27DdtRS61rJB+T9xjK4jK4mlTT2UrEIa+nWkP7FRzqHsH820zW9x0rDCtWWFj6KFlZWeDh4cHixYuZng8nLy8PkyZNgrm5OdPD8iZYsfJ26qrKUdlOQXjtN4OAzjrkvkUPRzhtBI/GLNiuNsHC/feZXiDo6n5YWa3DfAVN2D1qyaNfEHUf5poKkFJUhJq2GW4GtBQDKgtzpoSSJnbu24cFhsoQElfCvhtBaJEKjYhwOwIjZUkoahhi44ZVUFZXxb3UZnBS7kB+CB9mWW/B0tnaEBOXw4aL3iB2Fg4llnRnmMA3LBILlSfi55+HYuaa60iNegBdI2MEc80dZaEwVzXC5RTq/eIdoWdigK3bN2G+viqEJZSw0zmEsS41IdTlCAwUxaCsa4h161dD03gG3Lip/jvQDMeNs6GqbwlLfWM8TGJET3M5Ti6ZjyVW27HcdCGiSI69qkI4bVTF9//+N/79728wa78bCrjHvDoLR5fq4L/UuuHChrh8Yjf4FM1A6jb6H1sGA+uLlPQDMp5ehwb/f6nX/xv/GSqKI24JLceuKQUb583GWttNkJtKrfvydxhtvI3yzhqs12HFCgtLH6SkpIQehMiA2dDQPXeKuLg4/PHHH3SmUZY3w4qVd6c45gEWm2pg0FBBnCe+EW8hwnEDxmpa4NGt8zDSXIY0eqCtwIl1c3DkrhfWKijAllQTLA/HLP6xMFlPCYb8fAQ57oaEqC4eJdejMfoavv7pVxjudEJ8eiYCLq/DmAkqeFAC1MRchiSvIPbfCUJWWgxOWEngmy+/hitJzZ/pCekvvoHMomOISs1GzL09mDhSGE6x1E7keEFARARPcxoQ5bAScgoLEVPWgNrI6+AVlYQv96sV+0NzigSOx1PnRux5TPjlfzDZdBnxWTnwd7DGqIlq8C0iguoaRKcI45BHGHIyY3HCXA5/+2k6nOK6Eis5WC0qBrO99thvpI3LTPnk3Ee7oK5sifMn10HZ7BQlaRpwnfo+v0zTwqlr13Dt2nEo8I7D+utx1NblsDEWwrfDlHDg2DEc2WxG7dtvkJ5LBvdG2BpIwezYS+pQJ8JcVgAL7M5Sr7+Gs3ZzwTNxDqLIbSb9PsT+9zf88xcl7Dl6DPutdPHzKFU8fbVC4ieAFSssLH0MMlWjqakJAQEBejDqTkjI87fffosTJ04wPSxdwYqVd6ciIwYuzhex2lAd8sZ2SKh8s2mFFDIcrrwY2XlxMNdTxvlwavtiXyw03oCEgkQsk5DBrheFKLi9GcP49BFWST3w04K9GDbKAphNDbiN0Y4Ywi+Dx9xAt7pwGMhL4lxEMbx3GUHZ8iSzgiL/OeSEeSiRQP2WKa6Q/FMKjmnc3zUPS5UUYetGvVF+WyHDXDdbqOusoX1HmqKdICgtD39uStySQOgLyDFVl89CeIg8nnAH85oYaEkIwj60HJ67tKG0/BKzgiLfC3IS0rgc1UV56tIgqIqI4fCzGBzfoIItjzOpG0E+tpgo4MLdIOxfJA/tI0+oHXuCSYMHQdXmLB48eoRHjzyxRV8QRmvtkR7ggEkjRXE7kftwUw07KUHo7PSh/k/HQkUR7H1AiSBOHq5fOQXnO1545P0Q1/fOwtSpRoirp97+3jb8/o04nCNaikci4Qb0DOchrCt91cuwYoWFpY9BpmqmTp3aYyHHJLstyXLr5kZK8rN0BStW3k59bQ3q6tsdn4ZI6E6cgC23uNUFu4auuiw3D2R8d141A0uPP0Pi3Z0w3+uEZmRhsZg09gXkI/bKKvzw5zho6OpS4l0D2npakJ4+FTOoQbsy8jpGC8uDjOk01TGYbygDh6BsXFqvDoOtzswKivJIqCqI4HoMJYpI1eXhsnBKYhxsmzNgpaFGiZXstqrLlELJvLUZqlorQa7AxihH8FNiJZA7DVQeBGNBeUaskKrL6vDm1musioWOogC1H7m4ukUNMw62TXMRkWOsIw/7iM5ipcB/P4RFlBFNiYKb2+bA8kQI0gN3Q3fWRlQ0FsBMSQYn/GqQ+3gdfvnf//D1f/+J/0eNw3//53+pa/lXLDrqBJ8jq6Gx8HBbJBEnC3Plp2PDvUw0Jd+CmrIuQiit8vDcSvzy3X/wxd//H/7vl2FQUBCEgM42enrIa/88iC881voegedWQ3OmLbqQV70OK1ZYWPoQGzduxNixY+kpm57kwoULdCg0ex13DStW3o7/hfXQnHcQrUHGFQHQmsqDnR4t/iavgxYrsrOpZ31q/PY9AK255lixaDXOexLlkQFzUWnsDCxG+ZN9EJqmigcJObRwz8tLxQOnq/AKy0VFyCWMFJKDN/ejqqIwV18a58KKEXLGDJLGNq0DbFOSC0SnDsMNSlzQYmWYDK5z/Uaa0rFUXRV27jltYoVSURnOG6GmvQbErslJvAV+fsk2QZLhCYHJ4jidyGHEiioeZjFOqpUx0Fbgh31IGQJPzIbojN3gusA2x18H/1RJXI3uHJYdeHQBpgsuBzlD7u6whflmN5zdZQ6HaEpdpDhDYpgCPPOp3b+1GBOETBFZ2kyfm+XJ/jhw9gK1XI+gw+aQllhJi0DC42Mz8dvPv+MOpR3T3bdCTHc9qpqyMU9wBDY5ptKvr8qNxXoNYUhtuEq9og62xjJYei2s5Q0o+XJyxQzM3vvmBJS9BStWWFj6CHv37sXw4cMRGhrK9PQsZEAmIdEkNLq7iLl7DiZ6+jAwMIC+vh70qP/16f/1ce6uH64c2YADrkyF3fZUJOCEjR2epTLm59dQkfAI67ftQVoPm6VZsfJ2ypPuQ1tQBHM2HMdtt8tYpiENMdMdyKqmjllBMJaaG+HyywJm6zZCLy3Dt/w6SCCP8vWpmDP4G3wjOh8x9E8fj5kT+LDGmxIPdVmw1VeCqt4muHt7wWHfSvBPUcW1iBLUBZ/Dj+MFcJ9rxKkMh74iL3b5lqG5LBAmktMw0/oAbjpfwRYzGfw5ZDDcUqntEpzA+/10OMQygqEpFfOkJLDOOYv2WZnCNxUPqV2ufH4KIqOEcJA6Z2tq0rFOgQdyc23gdvsmNs5Sx/8bzYNTyZSQiTiKid9L4F4GI1YqIiEnNBpHn5eiqegljMX4YLL+KFxcrsBSVwrf80jgRuyrJ289Ts8Ug4qlA70Uee0UlHk1YX7wHm3tiDprgekiCygZBzQWPMfMySMwXUIJSkpKUBCZgKlmO5FKbdgQcRnCP/wfRgpIQ1ZBDoP/Qw3aXxohuQlw36ACmbmXwUE19pmJY8gEEfr1SjIC+IIaz83PvwSnJhI6EyfjiH9LhBanOgL6glOxxZtrvvq0sGKFhaUPQOr5EOfXt6XR725IWv4xY8YgPj6e6fk4MsIf4/SR4zh79izmyg3F8CnGOHHuHE4eP4VnofFwOmGD43e6EGNFvtDnnY7zQW8e0Aufn8A4IWmElDAdPQQrVt6NytQg7FozH7NmmcL2mAtac60VhGK5hQmuBnUWKxn+jrDcfhJ5tGsFB15HrGB7/H5LQrnmHJzbshU3opg5l4p0XN2zHvPnzIL5chvcD2kp3FmT/BTLNu9AFNeMUJeJ04fscDeuxcerMS8Eu5bPwyzLzbhz0wEK0rK4Gd8I5AfBbuk2+OUyIbnNhbDftwe3gkupgxkD2612iCJjdXMZnPYswbwVm5FCiaiGzEBsWz4bs8zWwdnTC2fs9+NRbjM4WY+wZekeRBYzYqU2Cwd2bsDDWGY/soOxbcVczF26BTdunISqgjKuxb8iyKnPcti7DJeethRbrEl6gs0GG+CV1eJ74u+0HTvOu7cm3KuOe4il+vKQl5eHxd6rqGyNPG5GtPcOqCrKQ3PmHrhfOQfbw7fRgEbc3rcVpx+3FFFszA2G1SzVltcfv46Lx7fi6vM0NOW+hM3mdYhifrLGnCDY2G5vOR59AFassLB8YsjF9+OPP9Lp9D8F3LT8mZnd+wR1f6c6dM0dmaUWmpoa6bwVXKqLs5CQmI7agpcwl5XHlZC2Ab0iP4sSUQnILGjrKwo4DwF5DYS1BEugriwPWe3WdxesWOm/ZDy/hb0HXZgwZmoA89gI3mmmCCptn0+k58nwdcT2U260dYSQfGM9eIWM0e4UZ3kPWLHCwvIJ8fHxwZdffkkXKPxUkOgjFRUVTJ8+nR78ugtXWxVoznNolzq8FrsslGBxsuXeEea0G8riwlDRnAnLRbMhzicJ5xjqibepBLeOWENfXR86OmqQEJHGypP3QZ5Hy14QsaKJBGrcqYhzh660DHbd5s6xdx+sWOm/1KT4YpG6LFSN58HKfC5UFOSx/caLXs2cT6hM9MFseUmozpgNq0WmkBVXxZ5b3Tfl+rnBihUWlk9EbGwshgwZQjvVfmrIoMfPz0+HTHM43XNb70qsbJkjigUnfVGb8QiyfPzYdSsSFRUF8Ni3AIOGjcOtFKAu2R2G+nPhHpaLZjQi6f4OTBktg8cF1EAUZg9xDUO8CAvAYiVFrD3n0/oE3Z2wYqV/01yWiYfuTrh85SZCUj7dPEZzeSa83a/h8jVnhKUy5kCWD4IVKywsnwAy5TJlyhRYWFgwPZ8esk+TJ0/uloy5hK7Eit18aSy9/Byh55ZDZM4etCbzro3EUhk5XAmtAEln3kI9ctOS8NR5PaYNlcX9DKAx7iamTB6OsYP/BO+cnssVw4oVFpa+BStWWFh6GVIBWVRUFCYmJt2Wnba7II62JHSaON5+LF2LFRlYXXuCp9sXQWLxKaafojkZ25XUcD28BpzaPFywXQxdfX3oERP6Yk3wjFDFoxxqs/gb+G3oOCxatQqyAsq4HMb1sOxeWLHy/pQWFaKqfd6V19BQU04NKmkorOpcd6a5tgRpGekorWs7a7oTTkM18rLyUNWhHg5DYw1ycnNR8+acdj0Hpx6FualITUlBSruWW/ipdqhvwYoVFpZehAxYioqK9EBIioj1RYKDg+kQahJK/TF0LVaksORCIDIfH8Q02VmI4ubmSr4DeUEhuCU2Ifj4DPBImCK6sAb1DY0ojzwPyZHidL6ImnAHCCjqgZS5895vgAnyy5DJ9WDsRlix8n7kPj4G3uHycEt4e+G7RM+D+McXX4B34ek2yxrD4+16+OJ/v2BbADcDW/dSF3MLsqMV4JTYOfa9KdEDgmIi8EyjhAynghJN2ehCT/UYDaleUP2FHmg7tB+HGOFhRA+Hv/UDWLHCwtJLkIGP5B8RFxfvkYGrOyEh1CSU+ty5c0zP++O0VhTS+qfbiZUaWBtMgdFeL6C+FHsWqkHecDVOnTkGK0NxfP/zCLgkNyPFZTMmThbHlmMXcPnscazQFMG3/zcBF4JrURN8DmMEpBBGdF5DLMwER0N1ozOqu/nhkxUr705zeRQshX/DP/4nhXtJb1eO0W478f0PX2LkpJnwzWt3fGtTsXb2FHzx5Rjs8O2Z7M21UU4Q/UsSjimdTxhOfQUSkxJRSe1Sie8pzDPfRSeF6y2y7u3H6LGSOHnbC15eTHvohaUqP0Fs3qFOwu5zgxUrLCy9xPz58zF+/HhkZ3NTYfZtSCg1Cakmg+2HEPngLC44BbXmhwAa4eV0HE7PmOy89QW4ecIWVsvW49I9T9w5Y49wumRvM156nMPKpVbYuPMcQmLi4OpwBo+iy9CYE4JDpy8gmzFKZQXcgM3ec8jpZiMVK1belUpcXmOJxXPXQl1pJpyj3p6tL+KGDcbLK2OeoRJsXKKYXiDP5zKWztOFirA6tj8m+W0JDXhx9xLs7Oxw8vojVDCzN9XZkXByu4Pk+AjYH9qKnceuIrW03W9Vkw33s3tgt/skgiJj4O52A/HFzWiMuwWZ0Uo49+wlnE7uht3Bi4gtYGRAeSY8PB8gOysN2+dIYtgIfmy7+AgF+Slwcr6JHMYKiNpc3LnqjPASDjiFEbh1/yHiE4JxYf827Dh+HWll7fajOhdup3fAbt8JvIiOguc9V8QUdi3o3Hdq0QUWX+XxAR2M112NliNbBa/De2BjY4MdJ6+gJVcNRUMxHvvcQ1xOJu7v2QrbrbvhmdzOobcxH85bbWBjtw8+WQWIuHMLnjFMQpXqVJw5YEu/5zk/kjmvb9JnxAoph+/r60vvCAnj3Lx5MxYuXAhTU1PMmjXrtY2s74k2e/ZsLF++HLt27YK9vT3u37+P6OhoVFZ2TpXMwvI2yI3gp59+QkREBNPTPzh27Bhd+JCEWH9OsGLl3Yi6vg06RjuRkxMEIzk9OEW+g1hx2oDxmuZwOLwZM8yPo0UDcHDr0CpYH7qI5cqqsHlMkr/VwnGDEfimKmEVJVYWa6vAaMVJlFB6tir4In7+5ScozFuLHTttMUtFGOL6NqANJrVx2GgoDUVDM9jabsJsJR789xtKdCdTSifzAeS/+gmTFOZgx55dsDSQwBSlxYggP03aHUyezg+v6AwcWaKIsWNFsPfaS+SFXMeEaQLw4Rp7in2hOIYfh2KbwYk6jbHDv4GC3gLs2L0ds1UEwW+wDVnEnFidjHX6ktR+mGPbjk2YJcOLL/6ciitdpNunNsZujclQnHWCHmdIi4mJQfDtAxj23Q9YejyQ+l5ZWGMihSHfD6LvJb/88RuE155AITlFS19C8ed/49txU8H320/49t9f4EdlCyRTuqi5NAazZMfj1y9/wA8/DsKf4gKYPpIPVyMq0VDgDTPZYfiBOpbkPb8ZOg67PMJbdqmP8cnESm1tLf0eu3fvpk3jPDw8dPE2GRkZaGlp0WJh2bJlWLduHdavX//aRtZ3dyPvu2bNGrqgnKGhIZ2WmDhEkn0UFhbG0qVLaQGTlNSSEZCF5U2Q7LSkcGBvZ6ftLsj1QEKsuyvLbX+AFStvpy7DHwsNF8Ejh/h4hEFPRh/uRBC8BVIbaKS6BaJDvGCipoMnxD2lIQU2s+fDMzoMq6VlsT2gGPUR9uAdK4zbKS2vQ1MKzCREsdMjC82xTvhxNB9OcasL5tyH+FQxOKTUIslxJYQoAUIGakKW935MGv4bbpF9S78Dya/GYhs3T38dtd+8wtjvTf02+Y8hLiWJ58VAwZ2t0NC1BrFNNL+h6jJizmP67+Nx7gUzYZT1EBJThHEjvgFRV6wwXWl5q09VptdeDB4thuvcVP/tac7ASp4/uANtW/txFGZvPo5Cclgr4nFq+x4EMVNnOZ67MUFAD5GUQKsMOI4v/vc9FHa7oprattjvNMSl9ZBQ14hLSyZi9DRNhNER3HVwWCeHX343RCoacHEuL8ZqrEUKYzXyO6oFBU0r5Hz8ad/t9LpYKSoqwpEjRyAoKAg+Pj4oKCjQ1ouAgADk5+ejuppra+s71NfX0zeaxMREODk5Ye7cuRASEqLF1YwZMxAYSKleFpYuIBfW77//DldXV6anf0LCmUmodU9Vgu5rsGLlLTQVYu9MQciZ7sDzgOfwuXUIolPEYXPxGTIL3+xdQcTKUIWFKK6vxLZZWrB1yUFl7GUYLzuG8vp0LBGTwd7AfCReWY6fx8tg16nzOHniOM7YH4PexMGQtrmPOkpAjBFRwLOW7PtATRTm6EjjYnAOrm7UgJ6tE7OCojwCqvKCTNVlF0iOUIBzGncfs7FMUw02rlkdqi5nMVWX86gtGhmxEsCtHFD6AgaMWCGFDEWHaeApV8hUxUFbXgAXg/LhaKMKo70ezAqK0gAYacnDoYuqy5VRlyExfSKOugfSY6Gf20lM4PkdVpfb6mgVxTjBVG4qxowchpGjeSE9fTKGqVmDaJCQ88aYqLYM3F1MuXcIujP2IT/3JdTH8OBUeJtASnHbAhHDLSgpjYLU0O/x5c+DMWrEMAwdNgwj/vgZXwvMRCS3+mIfotfESkFBAXbs2IFJkybRDoYnT57s1ze+pqYmPHv2jE5VPnLkSLpQG5kqYmHh4u3tjcGDB+PixYtMT/+FhFgTYU6u3cLCnonU6EuwYuUtVKdh3/p5MDYxwYyZJjDWlMGfvwyGkOIS3A95czh5S9XlOSA6I/LsEpjYHIfLvnXYZu9H9WTRVZf3BBYg/eZGjBjFj9V2tti4YQM229jCznYLzj+KR1noZYwSkm9XdTka8wxkYB+aB3c7HWiubSkKSFMaDCVJXjjGErHyDlWXqdM74+YmqOmuATnTG6Oug09CAS+4ueWqgqHD3yZWOlZdjoW2ggAcQgrhtlUdmpvaDawlPtBUkMWlyM5iJf7mMvDzzkAys0x4fkwH4tTxpN+6KRtr1SZActZyOq3A1h1nYGMmD42lR+nMvGcsFbDoqDf9OsLNHVow2HEfDbmekJmkirutefEqsMtoNJS3eqAh9T74eCZjzqot9Htu2rgBq9eswu4r99vVG+o79IpYcXR0xMSJE+kLlvzfF60nHwOxuFhaWtKiZd68eZ/FzZzlzRBrGxEqxIo4UKirq4O6ujqUlZXpadyBDCtW3sKrg1nuE2iIa8GR67NSX47Y6HBkl3V2Jg2/bo0/pU2QQh3a5pyH0BYUBK+aBe4nkm1TYCYkAVu/IjSn3IGWgAwu+DBmi+oEbDW3wpXAPNSGXcIwat3DVrEShdk6EjgWUoEi/8MQ5FeEW0wRmqj9eHbBAiMH/wJXMp2U7ALxwVK41k6sLFFVhq0bESuPISopDh9qYM9ztYG0xAIkEd+TwudQ5BmLXXdTwGmuRsCFjfh65DScpd6PE30aQoOV4dUqVmKgKceH8y8rkPf0MPimUUIhthTNDeXwPrIYPw0Tg1Pcq349zbi1xgCCmrspKdGOkhDoTPwBq5wTqQ9Kgcn4cVh84Rk9IL9w3YNBX36JuQcCqA0LYCovjMPejOM+Jx+rtUVg50kdnPpkzJz2I7TXncaLFwE4Z6OEb7/6L3bdzqV0SyRE+adg8ZUA+j1TX7hCVXsxbka3Kps+RY+KFZJHYuXKlfjtt9+wb9++bkvj3VchzpNycnK09ehDp8lY+j8kjT4RrsRJfKBRUlJCW1eIn1lfS2jXnbBi5T3J94GmpDacYxgRm/4A/BN/g81dblRPGxGO6zBYxhRJ9ExMNbaJ/4pxGptAH53meJgJS2KTd0tRzWDHQ9AUloH+DCOoycnCwOIIkqo4qA62x3BB2XaWlSjM0ZXA/ufEqtOAu4eXQUpcEtoz5mLVkrmYPI0PtxKp3zLZFRJDpTtYVizVVGDLWFbEKLHyKI/ajWw/mAiOh+LCDciorcOz45YQEhSGvokZLC0WQUBLFueTObRYER6q0s6yEgMt+Wk4ScwzaITHviUQl5CGnsk8zJkzA1Ol5HDtVQfb5iIs1eSByZE2y0gLHLisV8d4qVX0VE/4jUX489/0QIxxgqIQ5pmKLVeyUF90G/KT1HA7qeV6rMu4AwUhabjFt0x1JftewODv/0697t+QV9LF1NEysA9qkUURHtsw6Y+W9/zboHGw2v0Apc19c5zuMbESFxdH+3WQ1t8iID4GcgPfunUr7aewbds2ppflcyEnJwejR4+mLWwDFRJ6TbLcmpmZMT0DD1asvCeN1chIy0R5HXO8GiqRnBSHgsrOgrauPB8JadngJrstL0hFVh5jU+DUIyc1DQVVba+rKUpFoK8vQmPTWw06TTWlSExNR+tmzXXIzkxDUXUDKvJyUFBYgeKMWARHpaI66S4UhNVxN70JqK9AWmIaylsz7TYgNyMDhRWN9HdITUtrfc+KvDgEBYeinEQYUWQnhMI3IBKVjU0oL8lGSR21N3WlSE3MQBWzDdmPzPQUlFQ3oiI/E/nlVSjKiG7Zj3gXKIio4HYWd2MGTgNy0qhjVd7ZWtlQmYek+FS0rOEgKyESkZGRKKysQXVxDvLL6tFUW4jkuAzUMl+pqTofqcnU8aV2rzwnDgnZOaioKkZeXgECjq8Bj/BsxFCCj0tJVst7Rmb07RmBHhErCQkJdAZMMsdNLqbPEU9PT/z666/dkracpX9QUVFBR42R6LGBPk0SFRWFn3/+eUBajwisWOm/ZD8+ByUJHTh4hyA5OgDb54tBcuYeFLyiEXqaTO8TkJDQhsOjYCRF+WKzgSRk5+5GcS/uR5rnHkz4/S/MtrTCsmULMe27X2Gw26td7qP+Q7eLFeI0O2zYMLp66+cOOUak/D+JdmIZ2DQ2NkJPTw8iIiKtAr2hLBuRYbHUkxi9+EHUFWciNDwJNd10d2muLEAEtU+lb9mn0uxEBMWm4k2bPXr0iBYsH5Pltq/CipV+THMNfK4dgImhLnS19LFyxxkkV3S28PQ4jTV47LAXpoYa0NXRwfKtF5Fa3sv70VSHB/tWYtLo0Rg9egzm7b2Okv6oVCi6VayQi5HcrFVUVAacE+2H4u7ujq+++goODu2801kGHCS0l4Tit89OW/D0GJQkjRD6EWNU+r19EJGxQkJnP8UPovrlRfBP0YDnWyy+9/abYLDaSrytTCDJckumPN3c3JiegQErVlhY+hbdKlZIEjciVsibsrRx+fJlDB06lHa8ZBl4kESCJI0+mf5sD6epnhLtNWh6xV+trroEubnvJuabG+tRVV3b6T0+lOrgSxAT0MPDt6gQz0NzMUp3PZPi+82QBIl//fXXgBowWbHCwtK36Dax4ufnRxc+IxVbWTpjYmICbW1tZolloLBnzx7aPys8vHOK6spkP5w7eRXZr7ivlMXchSmfFExX7UZAAjeNU9eUxj3F8TO36ZTkEffP4eiNx61Ohvl+bth1wg2kLE6I5zmccrmHe1f2Y9FCcxy7HYrayjzcOGmDhWaWuPSkJftsTchliAvqt4qVzJCH2LNlFRYvWog1O88jtqDFTO11xAzjtJfA0+M61ixZiPX7ryLnDcrl4MGDtCB/+fIl09O/YcXKO8JpRFVlGR0lVlJairKKqrcKa05zEx0G31bgsj3NqKuvQ2NPRaRwmlFf39D1PtLr6vGpg2FqyktQUFiM2q4PUBtNzZ0iyAcy3SJWyJQPuRjJEyZL1yQnJ9NRIlevXmV6WPo7p0+fptPok+SAXZHnfQAS0zUR9KqPeUM1gl2Ow0BNDLzjJkFhzgbc84tBVzM9abe3Y4rQIpBME84bVSC0YHerc1zMiaUYLbEUpHi8yyYx/O83HqzfcxT2J2whOWYSxBTMsfPwaZzYtgDTJivDO7MBnMjrlFgxwFNK4ZQF2UNWWBabD1/ATcezmKcoBCHDfbT48Tu3DF98OwTzthzBtavnMEdiIhSXnn6jpWXLli0YMWIEHQnY32HFyrvAgfvhVRg9jg+iYqIQERSE3Ow1iH3L10x5coZOZ6G88XonwfLyuDl+H86Dg8E9k+ujPsEDesKGcOfml29HU/IDyCqSRHNEAjSitKwcdb3oYlKVEYJD6yyhp6sNLerc05s9H2fcXnZ5X4h0OgSLeZd7tSr0p6ZbxArJRjthwgS2yN9bIE+fkydPZo/TAIBcMF9//TVdfuF1FPicgJqsCcLecPNOC/PBMdvFmPDrUKjNu9KSa6IdGZ6U4FFcRWfSdN9hCMVlR1rFSvyFdeBXW0fXL7m1WhbCSnatSaWOGglB1oLrJ1WIVTKiWO+ZDsTdoMXKE2rD4qSX8IlsyyKd83Af+IXmIJW6V/ueNMPP4gtA37cpip/sxVS5GQh9y6lLQrZJWDMpTNqfYcXKO8Aphs0cCRhtvYmo6CiEh4QgPDYVXUQrdyDGbQf+/a+/449JcxHarjAwGnKxedZk/O2Lv7DVt2eym9dGOkLoN1FcS+osATiVOXjw0Au5tUBFyBUsX3uEvrZ6g/qMAMyUmghNy/14Hp2KovwMPHE9CtVpU2B+7GGrqGssTcWlXYsw9Jt/YpzE4Xeaph0ofLRYIWnnSX2f7du308ssr6e0tJQWdSSsmaX/4u/vjx9++IEe0N7Eu4gVkgfB6eg6TPrxV4hrn6atJO1pL1bcthtAaXlLem1C4sUNEGDEivMqFSgbnGWidzg4t1EFJke451kB1ivIYIl7IqVwnOlpIC9mGij1pQcO77TDurVrMFOFHzyCFnQa9KfH5mOc4YbWJ7ey8HOQ0zaA/1t8XYgZXVZWlg7h7s++a6xYeQcqw7BQSwb28e93jCKcbTGOGnSM1RWw535bMdiSoBuwnKsMyWkq2PmEm+0NSI/wwWUHB9z1jW099+uK0+AXHIbSwmx43boMJ4/nKOsQulaNYC9nODjeQXpuIUKD/JFV0YyG2JuQHq2C65EpeHb7Oi67PkIhd5q2pgRRMXEoLc7FqWWqGDtBBmfvBaO0LB9+1DVfwi0n1FCCIB8/pFVxwClPQ2B4DIqKM+F54zIc7/miooO5qBbBntfh4HQbqQX5iAp7gQxu4pZW6mG/Qgl8M17JYEtR9PwYJoyVgEsc+XAOPFbPhrCQDhbMkYWizn7WsvIKbxQrIZSaHjNmDJ1yvjeprammLv4y+mJt32rq3xKT2QV1tZWo6SV7n5WVFWbOnMkssfQ3SOVhMtXxLvlzXitWmhqQ8MQRFrPUIDiRB8I6FrjiEYDyLu75HSwr2/QhbXm8ZQVF4sW1mKSyjr5hOa9ShoLeKbTcT5txZq0SZuznFlHLo8WK1R1qYCBiRcgIftUchFzbBCEFHew5dhLXbj/Ck6vbICZtiXRqRPChxMpo3ZYiaYSS4DOQ0TJC4DtY54n/AnG0J1lu+yusWHk79Ul3YTBdAjuOncZqy9lYZncayWVcOfF6Ipw2gEfTDCd3r4LJCvvWaY67JzZg1fbjWKqsBttHJKquGY9OrITQJFEYL1wIfXlFLN3jSp/jFUEXMXToYOgsXI2VyxZCUWQaNKlrI498fHM2jlvpQlpRA2aLzDFLQxA//T4YN5Oo3zLDE/I//Al+tdlYs8oKurL8kJhlixQiWFI9wCckgofhidhiIoqhQyZhzaGHyAy5galU/3NS1ZBQ7AdVHmEciWsGJ+oMJk/6C1rGc7Fy+WIoifJCyfI0ish+NObjiKU2pBQ0sGipOUyUxfDDWAFcfTWDbWUoDPlHwdaFqQTdgTwsF5mMhYdJWn0OMigxVUi9POr6Qsiqbe81y09f4KPFip2dHRQVFen/e42qSMyQHYH/+8cX+OKL9m0Y9ri0LwX1DnCop845mtjmEs109CzEqsLDw4O8PO6Z/3qKi/tmjYbPFRKWTCptL126lOl5M/lPjkJRonPocnnsPcycJACV2atw70Uy3iSTW8TKSpBbd5LjGkyYrIRHyfnISQrDYtlx+EZvA+1j4rRMDtJax1vFysmVsjDYc5teAnKxRlocFsSyEucEoekGCK6tx6l5AuDRsKPFTm1OLA7PEcSvoyVBsnT7HJ2NoRotab4JJUEnIa6qh4B3PCUzMzPpY7VkyZJ+WWaDFStvp+DZcfz581CYbzuHO3euYoWGBKYpWSO28s2eoRGOGzBKwwKhz90xU9UIL8lhac7CTrM5uBX8AmtkZbHNvxhNSS4QGT0FZ3yZky4/EAZC4jjxpBDNsU74figPtt9PpK0tjdR5PX2CGK5lNiD77hbwixsisJDsBwdh11Zj5O8/w4XUBsq4C8n/DMFyh+AWK2TREyiO58fRZ1XU+z+GmJQESMb+/Nt20NBZQ1s6m6KdICAlD39uZeWSQOgzVZcRewF8vw3BHo9kej/qYpzBP0EUbilNSHbbBF4xU4TSygUIu7yG2mfRTrWBmnLuQmmYIM77v2pXITTh6Pxx0F7Rcbo54PwcVqx0wWvFCkktLykp2etJoUpeHgf/7zxYe/giXdG2rbkj/tXQi7dR4QcjEXGcfNY7PzvJbCosLIzr168zPZ0hFarJtBqbm6XvQH4TYi0wNTV955o4hX7nYaRljleLrNaU5yEp4d1SW9NiRWEFksl9tzIdx5frQEhcHqaL1mPT6tlQ2byT9nNx32wA3TkXW8WKg40+zI4/oJfINNBWXU2s86Tu1knuUJGfB99qaqCL84SFshSkVDUwa95y7Nq4FprU06hfdgOC7Jdj+mzb1mmp0nAHaJosQPCr81RvgIRyk5DuDRs2MD39B1asvJ260myERSa0ie36aBjwjoT11Tc7WJOqy0MVzVFYXYT1M9Wxy7MEdSm3MGPhfhTWpMFSXIauupx6bSV+nayKS55P4Hn/Hrx97mAB/0gobn1IfZQTRonI4xnXtaU2CrM0pXAhJBc3NmtBZ1O7QIayMKjITmeqLrtAcrg8nNO5e52LZRpq2OJCPQ60q7qc5bIFatqrQB4pG6nPEpSWR0A7sWLAiBVSdVl0mDp8uJdzdRy05QRwMagQzraq0NvuzqygKPWDnpocHCI63hA4xU+hwTMehx92FRlYATvViZi5pWNFf1asdM1rxQrxweDl5W21svQWMefXgkd0xWvn6ypzo+CXlo7K5Eg4nj8PB8+ADnOBNfFBsKf6Xf1jUBZxHSKyGnTxqt6CVK7du3cvs9QGyf576NAhjBtHPTF/8w194Fk+PSSNPrEeksGLhFy+K5zGOlRWvj2U800UPT0GMZmltLWjBQ4KsjOQW0LsKdS5XFtDO9w21FSisqpt3+qo5arWqc1m1FRWoqaB2rK5gfo+VSD/0jRWIjM9DXmlLSK/sboKtQ0cNNVXo7yqhn5aJHCaqO9C3Swa3/O7kFQGJKM1CfHuT7Bi5e1kRj6H/4s23xLqbMVapeEwPxrELHcNEStDZOfQQiDg4ALM3XEJj09txMYzpJBfFhaJSmMvJVaSndbhr6GTMXvRQsybOxfzzRZisflC7HGPQHnYFYwSIpE79FtSI1k05hnIwD4kB85ErGzsKFaUZfgZseIKyWEycGxXyHCpuirsmEKGXLGScXMT1HRWUzKfuiairoNPSgEvuP5alcGUWJFvFSsiw1TbChlWxUJbUQAOwfmUWFHrKFZKfKGr2lmskEKGm3WnQtOGO21LfX5UONKJAKrwh9xoPuz1aks2SWDFSte8VqwQs/jEiRMRGhrKbNobNOHiCnEIzt+BzPx85HNbXj5KmZt16Mml+O2P38E/eRK++sc/8Lf//oDl11vyPyR6XQTfHz/in1T/zyPHwURLGUIzt6Do4+9J7wx5Ol+zZg2zRF3iRUX0zZE8hTIHmi6GyPLpIQ7kJD8OsYYR0dKblKSHYvtcWYho70B+L56f3Y2Pjw9dJ+vs2bNMT9+HPDSwYuXNBJ03x2/UwP80o0UUZ3ofheAUSdyMqqQG4HqUFBeiqr7zlBARK4NlZtFRZw0pLtCUlYeMrhVcw4mASMVCESl6Gqgh+hqU+BVwm3YuJRTinN1W3AzKQ03YJYx4peryXD0pnAwrR9aDrRAQN0BAAfnsZsTd3gKe4YPgkkx9YBdVl9uLFTIN9IwSJTm3NkNe3hK04SbnIaQmTMbZwBZpkHz3IH4bI4CzyZSIp8SK8NB2YqUyBtry03EhqAKpt23BK2aCkEJyDjUj2mkT/hwhRommjtNAhMxHJ8A7eToO3IlADfVWOc+cMF9TFZpi0yG/+DDKXjmMRKzIsGKlE68VKyQBFLlQ0tM7lwHvOUpgq/dV66De1v6LGRdD6C2OmIvhbz+Nx4FHsXSSon1zRaFv54HaEn9oDP8HNNeeQRE18JREu0Lotx+gs7Kd+u0FNm7ciPnz59PhnUeOHKEFX/vvQp5EU1JS6Ckjtn2aRqJayECwaNEijBo1qpfP8RZiH5zGrLnLcDfi3aaM+jIkxJtEUJGBm/iwEBFAhGBfbARSz0tVVZUVK2+iMQcnV+hDTE4bZuazoSymANuLT2hLHzIeQph3MOzut7e8tBB6eQV+ENJHAq1ByrB24lf4VWY5bcUAJw6mU/ix1iuTWmjCvf1rIM2ngIVWlpihLgcpjdV4UdCA6qBzGDRJGJ5cn9TKCBipTMcuojRQjFMr9SEuq4YFFkuxdK42xkycAJckSgUk3sD0nwRxKY5xcm1KhZmsNDbcygZyH4KPfxq88igRlXgfajyjoWu9D7m1lbi1QQe8wrJYZLUS5qaGGCLOj9PU+3Eij2HKT9K4z43xr4iCoug4HPEh+1GKk8t0ICKvCfOlS2Gsq4bRIjK4/qqDLcPLG3uhp6AKw7mLsWb5IsjLTAAvDw9mrT6LzI4hRvA9aQghmc2dogcHMh8lVm7dukW/uDfzhnCKAqE7YRLM9jjQdUlam+sdhOZRirU5GxZKw2BwnGuKrMfhBSbYfiMJ8XfWQEBnTstFQdOIrSbSWHz2zWbL7oakJ58yZQo9hcYc2A6NJBojN0opKSm2faImIyNDDwKkEGVERATzy7F8DDt37sTf//731mNM/N36WiP7RUKvyQODsbExs+cfx4AVKzQNiHjmgatXHREYz3XqoKgpgM9jT8Tlt0xXtqciJx6PAsNRzYy/WdHPEBTFTHNwqhDpF4CEwrbXZUf7wunqFbg9DGwNT24ozcRjv0AUcV0UmyoQERKAlOJa1FVW0dOi0c/v4obHM+THeEJZXAXuKdSLq/MQ8DgQOVXMh3NqEB30Eon5lHKqK4Z/gD+4H50e8RA33e6ikA5XqkPIY1dccbqPzJJSpCSFIr2SEiiVGfB7/LIt/LmpEsEvniO9uA511ZWob6hC1PM7cPZ4jrxoN6hKqOBW2ut93prLqO915yauXHOmjmcOakqzcGXnZpxxD+ngiF+aGY7Al0lvdM4faHyUWPH29qadDsk0TG+R9XAfxopqoGMVljbqku9AV0kZHilMQFzFS8zQUMK15FoE7JgHyaWXWvopmtNvQmTaeOzx405G9g779u2jTcynTp2ib2LMwW1tf/75J86cOUPf5G7cuMG2T9CIECcZaomoZDMzfzzkHkFuNFpaWvS5feHCBZw/f75PNhIwQBz2u2t6e2CLlb5HxsMz0NFYhGfJxWisysWlDSqYrrwe6V2lgu1B0h4cg5LWIviklqChMhvnLFUhqGWNrA/Yj7raulb/sc+VjxIrJIU8mcKIiYlhNu15As/PwFQSlpaahrS09i0D5bXNSLmzA6KqC5HJ/LLFfmcgr2VCi5ukK5YYNnYy7oanITnOC3MlvsIXv/C0eZT3Eubm5nTRRwLxg7hy5QqdRIs5yHQYNil+yPLpIef2yJEje9mHiIP8VH88DiGm8P4PGVCJxUJfXx+Njcyj8WcEK1Z6mdpCOO5ZCVVVFWgoq8FkySb4ZfR++jROVQEubbWCmqoC1NWUYGy+FS/SP6c0bt3LR4kV4hhK0sc/f/6c2bSnqYP9IqHWQb1D+9cPuBZVDu/tMyCuf4TOPUF4sNcIonpbQVvpisOxUGEwvf1/fhgHft5hGCm5DNmvOC/1NLq6uti2bRuz1EJNTQ39tDl9+nR6/0iiPXJ8WT49JGMtKdJH/It6h3xY6shih0f/jwYjNxhNTU06mqq3HZT7CqxY+TTUVpSiqLisU/2h3qa2ooTej37sI98n+CixQgZYfn5+2mekd2hASsgLPHr0CF5eXh3aw8fPUFLXhJzYYETFtTkkZicEITapzWe6qSwdD6ntfYPTUFGWjdj07F43r5EDTqaAuoIIFFJriYiVo0ePMr0sn5oHDx7QVcV73OLFaUC23zmIDxPEvrsJqGlspgakAroGSFVaAtLzWhJkNRbn0lmjE5M7C5rakpSWdTmvZHCrK0MS6U/svTh9Um2cTBWTNAefK6xYYWH5eD5KrBDmzJlDR0ywvBvR0dF0faCgoDc79ZJIIfJEz9J3IBEtP//8M+7cucP09AB5vpD4/X/0Bfe/0eIIiIvDRkttrLfbDKF//hPzdt9FbMANyI/8peWi/H//ovquo4CJ7oxzOQ6xMYy18fvhsLzZEiFXlvQMpuI8zIX8K2ZvcEVpDz/qWVhY0EUNP0UkVV9iYIsVDiK8r2PHtq04fzuASUr4ZkpSg7Fv337cDOxcoqU42gv7jx6Df3Znx9zuoKkoATfOOSO+tLNrKqckCfaXHJDyCXV1YfwL2B/fj23bd+OyxzOUddrNWvi52mPbtp1wehz1ya1GvclHi5Xbt29j0qRJn62J930hzrUk0qQ/piBnAT0V9O233/bc1GdtKfZbqmKKykIEhEahMuY2Rg/6BrKmG3DnsT9y8pOxV38m1h71pP1pIj1PYPIoETjlAvXhlzD+56+guu0qnj59ihsHLSGrY4e8gkjMoISK+KwDiKReE+PvjKmC/LB52lUtku6BlOH46aefEBYWxvR8vgxcsVIH151zIaKgj412m6AmIgzjLddQ9xYRHOO2lR5QfpTagIIOt8EGXDQXoNb9A+uf9Yz1rzbiCqZ8Ow32XeQ6aUr1hpqWBp5mUXtSFAm3O09Q9C7qq1uog9u+xZCUUMPidXY4sGcbFpqqQF5zIbyTmX1tKsX5lfoQEdCHzQ5bGCpIYdEBj9baSgOdjxYr5GIhfhaOjo70MsvrITkcSHjk4cOHmR6W/siKFSswZMgQJCW1VYztTi7Z6WPekWf0/xl3rMHDr4OXrU97pXDbvg1223Zhz5692Gs9DyP5lPC0uAG31+lDdMn5Tk9bSTc3YPA3P8Nk5TY6k+ye3TugKDoE+ttIxtDuh/he/fjjj+zUBMNAFSvlETchPU0Fbqktw2VjxAUI80nhUeabnaijXLZj6PgREJmuDud2OUea8gJhOXc6/hgsjN3POmZspZ7umH+64A3rXl1VF3WDTrfvkkH28fWvi7m6DgqqS5HW9B7mx/fYj1eJvmGLcbyyuBnRLuV+cykur1DHBGUrZFCiqSHBGZKCynCNaVFQ5UFHMJ1XFU9z3/LmA4SPFisES0tL2omO5c34+fnR+RtI9BJL/2bBggV0npzCwm5O2FYbj6UqkjhIlzfmwGmpBrSsnVvWUTLk2ZlFGP/jr/jjj9/x+59iMNZSwTSducivLYW1ijB23GwLbavMy0JOcTU8t8zCb7/+hRF//YHffvsNg0eMBu90Wey40f1RfMTSSj6DTJmxtDBQxYrPOTNobLyGhvoCBD57joR06nzLyEBxzZsnJyKcNoFHbQbWL9WH5YknTC8lYm4egdViK8yS1cLWRy1Th9XZIbA1N4aSujqM5m+AT2JLNE1ZtAfmLVqEC/bnsXSWJuTVTXDlSVKr/Mj0d4KlkSrU9efg4OEDmG82H48zmsFJcofccBEs23cY1gsNIa9qiGN3w+h8JZwsfyxetgJBUVFYpDIJvwwajtnrHZEW/wzmSywRyc3AVhGFdXOW4BZ5v2R3LF61HKfPHoLlTG3Ia5rC/klLUUNCmu8NLDZQhIbxHOyj9mPJcit4plQzaxkas7FchQemB7qw1laFQGPcFGy9m4qmqgLqGBe2vneR3wEICWjgWT4rVri8VawQczQpm+/m5sb0sLwKqSlDpn+WL1/O9LD0Z8jvqaenR1883ek8Wht/B3qK8xFGz6qWYZ22CNZeCqbXkcyc6xWmwuiEX8tiZQy1fhwENY9RN9sabFYfB/1dLdaS0ihHTJ8siuMBWXi+czbExWzogoeErCc3cXD7VeR284T3s2fPMHjwYDo/DUsbA1OscHB9sx6EtefAbok5jPXVIDhFFvvd3169nlRdHqu5GPeunoCR7nrk0saLGpy1WYA9Nz2wRkkRtj4F1MWQjOWyk6A8ew98w8Phvn8FJGTnIZh6QUPkFXz93Y9QXXsSz4OCcXPPAoyZqodn1HXTkH4bKtP5sOa0O0JePIGdyVT85z9fwYX4omc9gMw/vgS/oQ0evwyD9/mVGDNWGndSqJ3I9sQ0QUFK1FTD9/giiEuawDetHJXh1zBZSBTPuTNTxX5QmyCCo3HUa2LOYdyg/4OmxX74hobBedc8jOAzRDD1U9ck3YMCHx+sz9xFaPBT2OkL4m8/8HZKt99c4A21sZNw4klXJc1rsEt3IgzXt/nJNRVF4vRWK4hMnAhr+95NaPop6RaxQiCF+UgCrd7MZtufINE/xNmQDUfuTFVuEl6EpXaZjTEtLghxWX0zkqS6upoOySVWxfcpcPgm8gP247e//RM/qW1AfKovNCU0cCmMO8g14fGJBRj0v+/w119/YQLPeHz/379DZGXLQ0LgxfUY/t33+P333/Hzr4MgZ3aUrh3SkPAAGpNG44c//6JeNwSj/hiNNbtcUPEeFu63ERISguHDh3dZoPNzZ2CKlWZcNhHHT4N4cdOfunY5DYhz3we+iTJwiX3z9yS1gYarWCA9IwzzdVRwLZ5D5jRgabQKEdnxWC4pg52BRSh9sB2jeHUQ2XpjqIKNijAWnYtAU4wj/uCVxIMsZlVtCLSlJHA2ugy+B00hv+BA23Ro5gNIThsNp3jqhE9xg+SvoricyJ2qysZiWTlsdc+nLj6mkCF1i85zt4W67lrq8YC66piqy/7tqi7rt1ZdPguhwZJ0in6aqkioiwrCIbwKj/cbQMa8XdRnxm2ICknhSnRH/86m3HtQHs6Pc75dHbcGHJ4zHjor2wbo6oJYXD+xC5bG6lCavQHhxV3dOQce3SZWyBuRxGas5aAz5ACSPB2sabxrigIvYfyQEdjhlcL0tFAccAl84ybjmF/n+iJ9hYKCArrIISlOya0r81HU5eLGro1Ye94D2VlRuO7siixuKm+aYtzZuQWrV6/GUYcneOl/B65+bU+zYVdO0OtsHR6hvedAebo/rKn+1avX4Zpnx+P8sRDfHSLE2Uy/XTNQp4FuWatAXOlAu4eMPKxUnAzrS/HMctfQVZfl56OY0wx7S0OsPBuMzCcHMHfbZeqczcJiMWnsC8hH7OUV+H7wRBiYmMLY2AgzZxtDgmck1HZ7oTrKEaOFFfCEK1aqozHfQAYOQVlwWK8Gg23cqVOK8iioKojgegx1RZCqyyPk4JTETMU0Z8JKUw22btkdqi5n3toMVa2VdCHDRuqz+GXkEch1JykLgpFg+6rL6niUw6yrioOOogDsg3JxdYsaZhy6z6ygKA2Esa487MNfCUapiYapyEhYX2vLy97U6iuTBTPeSVhyKogYszrCyYW55HjMPO7LdAxsuk2sEEiEBIkAYLOvtkEsTUTEGRoaMj0sneHAc7c2RvIZI5yb4LEhBSuUp8Jo670+n0wpMzOTHqyXLl3K9Hw+5Obm0qH4s2fPZnpYXmWgipWwKyshIG6JVlfY+iiYSE/H/kdvLr9CixXZ2SD5mfO8tkLHYhW2Ll+Dk+7EYT0D5qLS2PWiCMUPdoBvqhJuBoYi6MVLBIe+wB3Hy7gfkoXykEsYKSTXseqyvgzOhxXB78gsyM3b1yaisr0gxT8aN4hlhYiVYTKvrbrMFSsZzhtpywqxTDbH3cB0IVk854qVQh9ITZVsJ1ZeqbqswA+HkFI8PWgEabMTbRoj0x3iAp0tK8RK5W5niPHKK5DB3OyiPK7h3IX7eO60A7yCWvDNbUBJwDnMWrKtpRI0TTU2KEyD3r7OY/FApFvFCuHSpUv45ZdfaEe7zx0yNaCurk4f4JKSz6k+5gdQm4ElUuOhuvEWveizay745KyQxjwApb98gN3b1mPFilXYd8GjtdhYX4GE6H733Xe9nJb/08K1ppLzmySIZOmagSpWOCXRsFIWxux15+H3wgf7FmpARNMaaUQHlMRiz471uBvd+b7HrbqcSNRETSxmDBuEHyXmI4R+UEnArCn8WPc4D6iIwzJFKZguO4vwpEQ8dT4ImemqsA8qRF3ohS6rLu8NKEdDzgOoCfBh2VFnBPh548ByBfzx1+9wJz4rb6u6LDANjyixUuZ9ECLj5eEYkojGqngsEhkFvXXnEBT0HAcs9PC3ERNwOoU6Bq+punzcrwx16Q+hPI0XK4+54kWAN7bMVsDXo8Vxo4uwaU5JAtboCUNGbyWuefoixNMBChP+h3/97T+YtdeL3qY+9xm0p06AwdpzeBnyApds54FXTANPUj4P14tuFyuEs2fP0tk+SdbPz5Xa2loYGRnRN/NujxgZoBQGn4MonwROnD8JA0FJXPJvcTiLu7kPEmNEYX3gJC6e2ANNYR5orr/cUkKhD3H//n06ZJdU1R7oNDc301WJSdoC1g/rzQxUsUKozg7D/lULoKWlibmr9iE8l/HdyvWDkbYUTjzjzo+0kex9GjrLtjEF/ZrgvF4XZluutUxbNmdgzyJLnAtqcQKpyQzBXqt50NfXgcHMRbhwN5Lerjr2LvQXLkcw14hTm4KdmyzhGN4ijkpj7mGpsQa0TJfiwunDkJaUws146pXZz2CpZ4WHmczdozkPh9auwUXiqFIcCgvLJaC0ED0de3S5LrTNViOZ0uGlEe6wMFaFtrEFTjhcxpY9a3Enqxmc1NtYpLcGQdyEMTVpWL9iPly5+xHhgcUzNKA7aymOHN8JBUVlXI19JRqIS1UuPE7vxgLTGTAwMoH1vsO4emY/FpsuhqNvGm2hKU31g82imdDS0cYcq23wT+n+c6qv0iNihXD8+HE6hHHHjh343BKgEWdDcnMiQiU7+5V8ASxvoBnee2fiyy9/wPKTbWF8qYEP4BPVdtOLO7MMo+SWoS96spB8Q+S8v3fvHtMzMLGysqKTQWZk9F1/or7CQBYrfZHsl164eqMt+3ex3yEI8BnCt6h3J5Szg+/CwSOQWaL249E+8PPrwq/k/cbD4oQQBIQmdfBB+xzpMbFCIKHMPDw8dFn4zyXlNiktT5xpFy5c+FnXQ/lQmmJvYgSvEG4mdryxpL64j1OHd8LWZgNMxMbiL91N6Jkclx8PCd0lIbwklHcgYmNjg9GjRyMqKorpYXkTrFjpXcqj7sFAUhwzlm7ALhtraMsLY+kxzy6jDXuSkvDbUBMSxgwra+yyXQVlEUmsOunZKWkjy7vRo2KFQBzwDAwMMGrUKBw8eJC+uAYipI6PhoYGG/XzkTTEuIBHSAK34ri3lgbcOWQFWfmZ2HngAC7ffAjXnQsxRd0a3ECAvsju3bvp3EOhoaFMz8Dg0KFD9Dn+8uVLpoflbbBipfepyAjHpZMHsWfPEdx/0TOZpt+FioxQaj/2Ys++Q/B82f+rqH9KelyscDl//jx9UZHIAXIjJ4X6BgLkOOjo6GD8+PF0RER8/JvD9ljeTH3UDYyeJowbMdyKF8VYLjYUsktbyjnUF6Zgt950fCO+BKl93C5qbW2NcePG9Vha/t6G+OL8+uuvdNVzlneHFSssLB9Pr4kVAkmiRaKFxMXFMXnyZJiZmdF1RFJSUmiHvf4AOWA+Pj7YsmULlJWV6URYZP6eLdjWPdTHuoJXQg6u8W3luRKenoGugggU1HUw23IjbFfOg4jafPgX9P1zhgjYiRMnIiens6Nhf8Ld3Z0u4Hj16lWmh+VdYcUKC8vH06tihUt9fT1dZn/u3Ln0h5ObOSnwR5JZkakikqeFrCdz/kFBQZ+kBQYG0jcAcmDOnDmD7du3Y8aMGZg6dSqEhIToKR/iPJycnMx8K5bugNNYi4LCItQ2dnRCqy/NRVxMDDKKW0JkK4qKUN3Q9x23Sfi6rKwsLdCJWO+PkCkfEuW0a9cupoflfWDFCgvLx/NJxEp7Ghsb6ZshSUe/ePFiaGtrQ0JCAvz8/LQwIBEHH9OIBedDG7kJEGGipKSEmTNnYvPmzXT+mIEyhcXSO5DQXhLiS0J9+xtEjBN/s7Vr1zI9LO/Lh4oV8lBXXNxVvZg2PqVYibp3GLOoc5o8xM2g7o/EijjDyAruL98cyp4bcY+6FmZgm3NbxA6XdO9TmDnPDC6JryZO6x4as15g+4qdCMjrXB6jOScIa9atRWi7woCcXjLepvhews7zrmj/OFOaFIiTuzZiDvVQv2SlHW75xHRIYpvpexOLTUwxe85c6sF/Dt0WmFvh1K0Xve5M3Bt8crHSFQ0NDXTmV5KfhJjPP0UjjsEkmofkS+kvU1QsfRdyEREL4ooVK5ievk9eXh4tssh0LcuH86Fihdx3Nm7cSAtFMlXeFZ9SrCQHeODIvn04ePAwjp04g3VGwvjfDyJwj3nz94xx3UoPKN/zL0Nah1G1CofnTKXW/Rcbn/VMrF9txFVM/W46HOI6Wzmbs19i+aoVCCmktkt/ihNnbqKol0J3/M/NxTTjteCm0It12wtxXlEs3nwIN6kH5EvHdkFXVAgz1l9FKaNYXh5ZiC9HSOHErdtwd3OD+x03XNi/HpNGT8BaR27x04FDnxQrLCwDkejoaIwZMwa2trZMT9+FZFwmU7MksWF3FWn8XPmYaSBidSb322HDhmHTpk30Q1R7+sw0UFMWVmtJYP2lcKbj9UTe2oZR06dAQVwJF15wc9gDdSkPsWSuCMaPkcYun3bW64YKZKSloaCiTdk0N9SisoaclxwUZKUhp6hzFteakhykZebR5TrqaqpQ18RBXbQzJEcqwS29GiW5GcjIbxedyuHQlgsyFf3k8EIIS5jiRU4xGhobUFFRgUbuMyunEZXlFdT7Uf9T21bVEk9/aj8y05Dd1X4UZ7fuR0MttR+vTHETXl62hLSZHSXXqH3N9ILKlEnYeLNjBeua1EeQ4+HByust/pHBJ5ZgiMoatB3BFjztNPGXxsbWKusDBVassLD0IgEBAXQOlsOHDzM9fQ/iW0PKRJDpz/7qZ9OXIGKF+Cx9aEkCMj3O3IDphIOkpAO5KROIkCTWr08tVrz3z8ZUpbXI7TwOdyLCaSN4NOZg+7rZWLDrDtNLXRuX92DZis0wU9SE3aOWZINZL27CVEEKUtS5qKxqCofHiXR/WagjZBTksHHrDsw3VIaAkDRsLz5jslrXIeDqDmjLiUNJwwCrlptDXEYaHimUXEj1gPxfk6FvtRZLZulAVEQcVsduo5zab06aN1R1dOETGglzlUn45ZdhMLF2RGrkPaho6eAlVxWUBmOOrBYuJjWDE3eFeo0KrDesxjwDNQgKS2GDvS9awgMa4Ht5BzRkRKGiq48VVosgq6GDW3Gd0+3TYmXhVjrxG6ltxKO6jK74/CoP92pBUHMz/T0jTlrSYqVDfvSGAuzQFYTYolMYaAUwWLHCwtLLeHt704OOg4MD09N3INmmiQ+CgIAAW8+qmyBihRxPku2XHNP3aWQq+unTp/jmm29aBQtpJAqRRCTGxMTQYoWcU5+MkiBoCk7DNs93y2Yc4bgBYzQt8NTdAcYaS5BMG0zKcHTNbJz0eoS1CvKwI+nvqfc1nDoGC3d6IL+iErEexyAlpI57cbVoirmOb37+A7MO3kZ6QRGiXOwwdrwC7hZxUBV2HqK8ojj1OBbFBWmwt1bA919/AzdSRyjTE9JffAflFReQlFeCtGfHMHWEIK5GUjuR+xBCYqLwyW1CwtW1UFS2QFINB3WRjpgmJgU/7sxUSQC0eSVxnBRGjL2AiYO+xvwdt5BRXIKIm3YYw6OEp5SwKX55AYJTxHHuSSJKCtNhv0IVf/uFH06vFSvbaF+T8xZTobLkYpcFXDM8N4NPVAEkZ2biZWv8+vtYaM00hekMQ6goKkNXUwlas1YjKHvgPWSwYoWF5RNAQoBJ4UMSEtyXsLS0pJO+vc5HguX98fDwoK1pZCrofRuxyJBoskGDBnUQK9z21Vdf4ffff/+k2ZLDHZZhquxipLdlG3gjpOryMOXFyClIgoW+Ck4HN4BT+BTzZ25GcnESrCRksDuwEHmuGzB0mgGCihpQWV6O2vocbFacjhmHA9AQ7YihArJ4yhUQdREwUpTEufAiPNhhANXlZ5kVFEX+kBedCMe4ppaqy39J40Y6VwrkwUpZCTauuUA+U3WZ0kk5bjZQ01lNWy2aop0gKC0Pf24dopJA6AvItVZdFh6qiKdcM0hNLLQkBXExpAx3d2pCdXW7UP/CR1CSlsGlyM7Ow+3FyoUlvFBecr5LsZJ2byMlVpSQTH2V+Asr8Oc0TVz2eoon929gidpUjBYyQ/wArWvIihUWlk8ECQX+/vvv+0w2WLI/pGI6m522eyEWEjL9RywkJEfT+zaSyoHkuGFuwnT7xz/+AXl5eTpRH4lc/HSJ+qqw20AURtvuMstvh4iVIXLzaCHgZj0TS454I9Z9OywO3AQHWVgkJo19AfmIvboaP/05Fura2vS0pKaOJiU6hDD35DNURl7DaGF5PMpseU9Ux2C+oQwcgrJxaYM69LfeYFZQlEdCVV4Y12MaW8TKcFk4JjKWh6YMWGmowtY9h9ItjFihdizz1iaoaq0E8RBqjLqO6ZRYofRTC+VBMBaUbxUrIsPU4J3NzH9VxUJHUQAOwbm4tkUNxgfa1QgrCYCRDvWbRbxOrLRMAwWemIvxyktap3caaytRXt2SAfPhDnUIKG2hp3hapoFWg6uhSAVpS/FxkLW4gIGoV1ixwsLyCVm1ahUdGpyWxq11/2kgAyLJTsvm6+h77Ny5s4NQUVBQgKura2uBWJLm4VP9bpziIKgLT8PhJ+8evUOLFdlZINXiyl8chabJPCxesAr23kQapMNcVBo7AotR+ewgRKer4VFqCSoqKlFRnoMH1y7hQVguKkMuYaSQHLy5M09VUZirL42z4SWIuLgY4nrrwQ2grou5DqFJQ+BMiQtarAyTwfUEZiqmKR1L1VVh116sUC/McN5IiZXVoKu7JblCYJoYuLNczUm3wTtRDKcTOYxYUcXDLEasVMZAW4Ef9iHlCDqzAMJ6duBKk7pIB0ydJImrMZ2lBNfBlqxpyHkCTd6JWHU5hF7XXBKPI9Ybceb8UeiIi8LONY7uDz5BiRXF5Wg1ElEUvzyNkT//jn1eAy+9BitWWFg+ISQ8lYQGE7+DVyM9egsyFUWmEm7caPc0ytInIHlu/ve//9GWFDk5Ody9e7dDKoVPHQ1UEX4KfKOlcC/9Fc/avEDMmaGCs62OHm2EOFjh6+naSCDTRo2ZmD/4S3wtMh8JdHBPHGbw8GL1Q0o8NORjj6k65JWtcOmWM45sXgi+KRq4EVOG2uCz+GEcP+5zNX5lOPQVpmLn81JwqkJhJi8AnSW2uHDxNNbNlcZfw4bCjcxsJjhh6rfTYB/LCIamVMyTFIe1MzW453hhMu8UPMynBsaA8xAbOQ1bnR6iqiYLdhpTIG64EpevOmDNTDV8MZYHJ5Op3Y04Ap5vxXEvg/n+FZGQFRyFI89KwCmLwDzZ6dBZuh0ODqdhpiWFHydKwCmms8+K/7k54DNe2+pUm+R5AtKTRTFvyTZccbkBayNp/Otf/8QQkdmIYgKYAg/MwddCZkjtMF/UiCsWovhmjA5eFg+sKD5WrLCwfGJIXiF9fX36QiRTBr0JmZog/hRnz7ab42fpExBRQixvJEmmi4sL09uRTy5Wkh9h/0kHZLw6LhZFYsu6JXAJ75wgLivIDRsO2aOAiUT2ubAZB+yftCQ8a87D1b0HcTuOGbbr8uB+ageWLl6ElRv34TnTX5Pmh017DiOOe7nU5+DSmQPwTmQCdkticXyLFRav3YVHHtehJC2HmwmNQGEYDmw8hKB8xsGmuRhOJ47jbgSlAMoTsP/gfsTR5pQq3Dm5DkvXb0camXMpiMShzUtgbmWHu8/8cM35NJ7nN4OT8xx7Nx6nXsOIlbpcnD6yCz7c/SiKxZEtS7Fk7W7cu3MeavLKuJbQErPUnrRAJxy84tEhgqcqKwr2h7bCfNFibNh1Fj7BQXDavQarbM8gtxrI9HHChqPOKH5FJzbkBmHzmkW4E9X52PdnWLHCwtIHIBciCRUmc/O9ldckODiYdqbdu3cv08PSlyBiJSIigk5M+Tr6TJ6VPkT6U0dssbtE5ywhxDqvxFT+uQgj8cm9SPrTS7Dec7nVfyTKfjmmipgi4qMcSpqQmZyAAWY0eSdYscLC0kcgqdVJiCsp7dDU1LOpM0klaOIrs2bNGqaHpT/CipXO1GUGYaWBEhR1ZmCBqTGUVdRw6G4Es7b3qEl7gcXqclDUNcSC2fqQkdbB8Xu9vx8DBVassLD0IcjFNmTIEFhYWDA93U9BQQHGjh1L1yriOmmy9E9YsfIaagoR8Pge3G8/QFzuR5kyPo7aQgQ+8oD7HU8k5LEJFj8GVqywsPQxXrx4gZ9++gl79uxheroPkkWVOGqSi55c/Cz9G1assHwusGKFhaUP4unpSec8IcnjugviA2FqakpXEn9bNV+W/gErVlg+F1ixwsLSRyGhxH/88QedAbU7WLp0KaZMmYL0dJLhgmUg8MnFSlMhPC7ux/r1m3HtQURLRM9bKE4KgI2NLS77xDI9bRSG3Ybtrt14mtmXp0xq4eN8Hp4veqYyNJesCC/qOB1BWFbnKj8JrhewdfcJZDcAOf4ucLjxBO/uc1uBh5cv4348N+1cG3nhD7D/0m1UdJU+lyHlhRsuPXjZZYbdnoQVKywsfZjTp0/TocUkxPhjIHVkSMXn2NjOAwRL/+WTipX6AhxfogFxTTPs3rUJauJiWHLiEZ2F9U3EuG2lB5Tvxdchr8OIV49zZtOpdf/A+mc9KwS6pLkUT90dEZj8thKARVirMBrzdvVkpmcO7Nfx0Mdp/90kpq+F5vwQKAz9Gr/8tQD5TcCTE0sxZ/OFtx73NiphZ8AL/X2vZD1uToWV6ETo7bmHuteqzkpsNZoGsY1O7yRMuxNWrLCw9HGI7wopXBcW1lIa/n05cOAA7bQbEtKSEZNl4PApxUrpywvgnSoDH6Yace7D/RAWMkAok2LkdUS5bMewiaMhJqAGx4i2jRtz/GA5lx9Dhopi17NspreFhvr61w6OTQ31eF3sXH3d6wsWNTfWo7HdmzbmPccMQSGc9S1E0xvNBiWw1ROA1eG266m5sQHN7d6rqaEO9Q3t96r93je/sq4LOLnYMEsII0eMxbHLL5hOQiNu7TGFiL4sVm2+xVR3fn/ctxlBZf7FDgIn7pI1JgrrgVuJoEtq42EqL4l9D7h1DqhdfeWHaX8cuhNWrLCw9ANIcrCRI0fSIcfvA6kdQ5x1iQ8My8DjU4qViojrEJ0mBo/kluVM520QENNHNJNh9XVEOG0Cj/pMbFxmCIujbdWiI24chtWSFZgtp4mtj1qmKivS/LFuti7kVVWhZ7oKD6NbEp2VRbpj5pw5OHn6FCxmqkNKyQDnH8S2Tk3kh97BYn1VKKkpw2TRNoRktziTNyQ+hLmROXYeP4qVc7QhJa+FQ+5hlNhphvP+Rfjz++/BK2GB0Pg07F8/Gwc9ounXEYHhscUKFiefUP/XwE6fEivHWtY9Pr4aBgu3I4nSXdX5CTi+aSmMDHShKi8P02W7EUMnoKvEWauFWLTtCA6tWwgVORnM3XQGOTVdi5bm7KcwVVTAYgsjzD1wpfV7VcS6YIHpDOywM8GSK16UdkmH3bIFuJlUi/pIJ5htXI/TNiswadAgDBHVgvNrEsOFXdsEcZ1lKOAKi7oMLBYfB8sLLQIsz/8GdMV+pQto/i5sBPegQlpucXJuQ11UEbfTmtGU/giWc1YgmPmI8qg7sJi7hvn9q/Ho5DIMpl4/aNBwzD71FFUfKWJYscLC0g8gzrEGBgaYMGEC8vNbS5e9ESJQSKp2IlhYBiaf1melHp77LSAsro4VK6wgMFUOe26/fZoxwnEDxmouhqfjKRjprEE2PRJX48ymedjveg9rqEHa9lkB1RUPCwkeaC46hpD4eHidWA8JKRMEZDaiIeoqvv7+J2huPI+XkdG4d2QJxkzWwmNqoGzOeQjtieOwwM4J0UkxuGZjBkn1lUiqoNYluUP4/30DmXn74R8eBR+HdZg8Vhr3EhtRmXEfOtOmY+/teHAaCrFQYwqW23OtGs2wN1GEzIZb1P91sDMQxYZzsYjw2gdZeWPcDculBvM6XF9rChmDTQiITUVS5FMslhgHw8236dfv5B+DX0fowPlBAKJeeEJ/+hiY7+u6WnaG12aIShvi6nlrGKzfTx0dQjV2LlHA0gOnsE5PB+d9y9EQewNiIoqIqAVCTi/B36mxebSmGTZu2Ag53j8hvPRUlxapMt+zkBUzRgBTuCjy6nJMETJGEqWrmnKfw2j6RMxcuZ226q6fr4JJImvpgok597ZDQWcRMqnfLM5xGfil1yKXUVKB5xZCSNGOknJNuLdLHoPGS2IT9fo9ezZCZOof2Hrr43LMsGKFhaWfQMKOpaSk6Gq79fVvNgCHhobS9X52797N9LAMRD6lWKnJDcIaYw3omlFP82cOwkRZAYarLqCw/s2P0KSQ4XCVxcjIisQCXWVcjqFGu7IXsDCinspzE7BcQga7AotQfN8OI3j1ENl6qlfCVkUIZqdD0RjtiL/4pPCQO1tUGwodGQmcoR7rw07Mx2j5la11dsBJxjyB6dhKCiWm34bEr2K4msy1aKRjgbgYtrlTQzEnBmbSMrgeTdaVw1JPEGuvBLVsRomNK/M1oWLrTv3fgL1zBSEmLIORE/ngFMPdwSaUFLZF2VWXFuDEQlmoLT1PLTVim4ggDLe3WZLu2BlDYdZp6t06E3BkLiTUdiH8+SUo6+6lizIWPDsFhUXW8H92DbKUMHtCdWZ52kFU2ZoWM8cXTMb3qmvALVP0YOdCzNt4tevps9xH0JQVwyViHKoNhr7wVKy921IgEVUpuHrdHk9eRiE6MgIu+2eAT8iMFiv3dplCafFxerMrC5WhSx2PlvdvxtX16pix6x5Q+gJiv/4CnW3XEBYTg5iYMByZIwhF8+MfPG1FYMUKC0s/giR0I6HHs2bNYno6k5iYiHHjxmHt2rVMD8tA5VOKlfsHTMA/c0drWntUhMBw2lTsvvPmir901WX5+dQAzMEVKyMsP/0Cad57MX/HVWq4z8JiMWnsC8hH7JWV+P4vHugYGUNfTw+GM/QhMWkstPd5oyrqOkYLK+Ax13WiOhrzDWTgEJwN1+2GGDRGAIZGRtAjrzPSBv+YCVhyIxqcDA9IDZeDUxLjmNGcASsNNdi4ZAD1EZgnKYXLYaS8QSksdAVgfa3NL8XRTBuqtFgB9s/9DcOmK0JVShQWx9vGwurMF9iz2gKzZxhgnvlCyE8ZDv3116k1DdgqJYaZB9qcWr0PLoHCvJPoXEyhFntmy0Jjlxc4eX4wVp6LmOIq7Fqkhk33/n975wEW1ZU24P03m82W9M0mMc3EWGLvSO8gAiKgqCgiYsPeEbtYsWDv2CtiryAW7NgRpKgoHVR6kw7vf+/MANbEJDbW8z7PfZjb79zLzHnnlO+LJmnPFIxs3BTZnA+NscV65E7p1QPpfTRl0p5oxRHkTsDu3awZvba8GesJSmIZaF6D8bvCubSqLw3bjiRVUUOSz/7FQ/jy4/cUhf7fvvoRff2m6DkuVey2pFdrnGYGSq9yGWGlyZTdKsEpvkNvvQYsPJVG+vklfPz3v/OPvymkQZr+yieffIrehE3P7Vv0IghZEQiqGDExMTRq1Ijhw4erllQiZ26WC69+/fqplgj+l3mTsrJnmg16A1ao5mTi6aPdiHFbVZ1YnoNCVkx6IOkBySc8aN9vGBOHuLLqoFzQxtFPx4hZl1JJP+aBWgsLDly/SXhYGBE3Q/DbsRX/oCSyrm2ilqYpx+WDyOSG0rOjEatDMghePQANk96cC79FWGgYN8OusnfLNs7fzaT49h4MahjjfVulWFKhPaRdW6bslaynMJie+obsVJS/OQy3bcXANeUjfkpZ6GCM0ZSD0utCpnZqwYg1d8iL9kG7fku2yO0wZdEM0W1FF6lQDg2NICk9k62u7Wg3eI20jyQrBjo4zK18TkfnDaBNr5VPy0rhHbobVsfNJ1K6jKtMsO7KIV9veg1fJikUbBuuicUQOfFoGZOttSXhiKQs5iCWpu04rRpEVfrgLA52bfCOeN6A5kI8B1rg4jYGO301pviqBDPrHNZN6jJ7fzQZGRkk3b3KKBttLOf6SvdKEpIWmsw5lSFJ1D7aGFoTqGpGOjetJ999rsHJFIjdO4kftJw5l5CuPEZEIIu91nMt7jd6Xv8GQlYEgiqIPARZHoosD0kuJzU1FQMDA7pIvyhfVzJEwZvlTcpKSsgOLJrVYfCsVZwJDGCeczuaqPXhWlohpIXiPn4Ie5+RdTlo8wg+1+hIpNz+kX8bx5++4HPd3gQrCr7bdG+ixpgTUqmbe4fRVsbY911IYPB1Dm+YgV6Ltmy6lkbBtbV81UiTIzHyPhI5wdhbtGTO+QyKks/TXUufgRM3cDXsGjs8R6Cu4cDxxDy45UPLL9TZdFMVgr8kmj7Ghoz1kUSpNI7Bas1xnr2DlPwiDk3tTBMtO3YdP83ONXOp88OnaM2XCm1JL8ZZNqLffGUfjD3j21O/zVDu3otkgNYvWI324op0vQd3LEG/1kd87TBHUp08Jqo1w3a6n2IfGd+Zzuh2WfxYpmWZgjs70W3VnG1h8g1KZHFvXRw6DOHg1UTJT5LpZ1GbgZtvSRuGYqGlxbqgPGL3T6GxoQvxqqqLmMMzUNPtxM2nq20qODWtG5/+9S+oOa5U1apIFEjCZdWYZsb29O7dGwcLTUXhP+5AjOQqe9FUM+RcpnQZsTsxavEDbewd6NHXnsYf/Y0vTFwVzVVFiacx0vkZw87OimN0sdKlkbk7dzP/TL2KkBWBoMpy8eJFRQyWZcuWKT7IVlZWmJmZCVF5h3izHWzh/rX9jOnngF2nzvQZPY+QOFXzyv2L9Ohijte5e8r5R4g6uQ6H0XNIVHRgKGXf1G4MnblT2URQGs/CYaPYcE3ZibzwfhhLxwygi30nuvUchnfAbWkPue/tEboPcSNINWya/Bg8p41k1410xWz2rbPMGOJM584dcR4wAb8gZZVDccxpRjq6EpCgKsVLH7Bs0gQ2nZY7v5QRvGcBdtbWbL+USGl+Mhum96dde3smLfFm67opzDgkN4EUsXnaYJbviVQcgpwbjOnRnU3nksiMOcnoXu2x6+zA1BXb8du+kOEzvciQBMfbdTgeOyqbla7uWszYeYee6seRcmEbPVw9FZ1dZfYvbc/QKdsolt94ehCjhoziQII0k3AU14lziCqWjrV1BqMn7auopbm2ewZuHr8+tDnh1Cqs25mzL/Tx74u0sEPYGjajSZMmOM/xYs6kIWy/nExuuC/Dxi4hQdHJppAj0wbQomkTuk5ayoHNi1i2+mBF/5vs0K10MW2qOIaR62KSs3+9H9OLIGRFIKjC+Pv7K2KwyNmadXV1SUl5Oiql4H+XNy0rAsHrQsiKQFDFWbNmjSIewu3bt1VLBO8KQlYE7wpCVgSCKs6ZM2dQU1MTtSrvIEJWBO8KQlYEgiqO3KFW/kx6enqqlgjeFYSsCN4VhKwIBFUYuZPtBx98oPiA1q1bVzF0WfDu8DbISlHWA2JjE8h/wT6UJUX5pKenk1f8jNEhpdK6zAxp3Z/vkPnqKCM/N5u8gj83uuW3KCsplu5TDkXlI3UeJf8hGelpvIxLKCp4SM5zOuXnZqWTmf9rKRJLeJidTcGLZ1H8wwhZEQiqKGVlZRW1KuXTvHnzVGsF7wJvVlZKuLrbE2sjbSys2tFz4FSuxamGBP8Kd44v49NPPkF/5Manoreen9+DT7+uwZzLTw95fvWUkZOZTErWk1f1JBnMcTZl7Ko/Fz7+twhY5cQnn9Rk3fknM1Dns6hDK75r0IHrfy50iYLwA+Oxdp5C+cCqcrJDfbDQ6cyOyOcne8q+vhErXQfOPHj1cilkRSCooly4cIF//etfj8lKnTp1RN+Vd4g3KSv3L21ArXELZu+5Tlp6Evtn9sbGcRKxvxLbQyZ8nwcffvh3fmzsxGNOUpjAeKcm/OWDGkx/xpDnV05JDB4uvTgU+VsFbxqTbJozcP6rzGKey5xB9fjXPz9k+e5Q1TIld48uoE6DWnSy9eI3cka+EGkXlqGt4cCVxw6Ww/RumrQZuv0poXyUK8sGomcxqiI/0KtEyIpAUEV5slalfJKTjwneDd6krOybZo1+n+WqOYmCG3Rrq8OS36gVCdnhTj2T1nRvb8bMg7dUSyH1gjeDe7bDVL0tM0+Wh6aFm4GHWLZ0KduPXK2IG5KfHIn/qXPcT4hi74ZlrN7mx4PHJKmQK0d9WLpkKQfPVY6SK0mPlu7VBWLuR+O7dRXLN+8nXlEZVMalfZ40+6463VzXE5WUwbXz/lyLKn8vZUQFnuREsBzfP5spHdUZuihIsSY//ho+Poe4pwoxk3LrAlvWLGfJ0jUEBJe/j3yuS2Xm1ZhEwk/vZulSL85E/EpC0rybDLUxwcjEiAkrH8mYXhjLFBcr+k/owoAVOxQxZ6Qbz8n9G1m1ahXrNgdWBJm7ce4wB69Eqebg9pUjrNx3viIWSwVJZ2hnaMDusMqmoOSrXjSp3xr/OGX7TuqtU4rjr1q1heDo8qdQxqZxnbAds0kxlxh+mmPXVLFnJGJunOT49crzBx/eoTjG5h1B0p6/HyErAkEVJDAwsEJOPvzwQ/7617/y0UcfKebluCv37z9ZdSz4X+SNysoMG4yGeKnmJMpCsK/XmInbKwusZxHiM576Ni6snjeGbkNWS0WtkgNLxzB69iqGWVgxJUAO0lbMoTn9UGtsQO/hw3G0aEMf963kSiVdztX1fPvdN1j1dmXc2OHYGqrRppcnCYo+HMmsHdoBtVbmDBo1mI4m5rit8FcEnSsO24nGZ9+ha9uPCeNG0dVMA8Ouk4mRDnp222QafvcdbZ3nEpsYg4t1YwavvSAfUKKUtV2M0Rsj5+GRw+1rMHptNDwMZUAbLZwmbOJBXikXN3mgr9magW7jGeHSiZYN1Zi3XxayfKbpNuK7RpaMGenK0F52NFczZcv5Z+dRyg5aj7lZWxZ4DqTzzCUVknZ27VC6DRrH7CFdmb43VDpsItP76fLFF/9W9F375z9r4DRpu+IeBe8ZRXN1R+ScjQVB+9Gso8aAdWcr7ncFJXcZZmrIpCPlYpGHRxctLEbvk16XEbh9Co1qVlMc/4MPPqFWs16cjpKVJwv3jgYMXiHnHypkZhd1ei5UJWosS2W8bUsGrpMTQRawdrojP0jfT4pr/OBHnD0OPBW597cQsiIQVDHy8/OxtLSkfv36rFu3joULF/KPf/xD0Sw0dOhQPv74YyZMmKDaWvC/zJuUlcTzXqg3bMXcPRdJTLrLrjmD+fb9Wkz3Lk+m92zk3EC1rQcSfOEw3aw6cV5OeFMSx/TePTlw/SquxiZMD0yj+OZ21H9pydbrqmItOwRHbV0WHrtPaYQP/6nZhHkBqpqL6H1oNtZlU2wRKUdn0qChOedUFRdFUb6YtzRl103pOLEHMfhXHSbujlCuTD+DZb3mLDkpx/oPx8XIGB9FbqAsBtk9L+tyATMcDBg4di3jB7VjyIJDqqaSAo6tW8q2E5W1CT7D2mAxQM66XMosjabodl5EhqpdZUkPHdr226aqHXmcsO0D0NYfgu/u2XRwmSddjUTWdTo7tGXVPm/pPljhEypZSFoIQ6bM5Ow95UFv7xtPXW1LIhVGko5nH0mONngxSkON/lPPKLZ5mgLmuRjQc/5ZxdwDvyU00rDhrMKjiti51oOJe64q1snpETrq1WDygVjpn+8SnTWM2BxZLPnNRdrr6rCxvC0p6xq2+gb4RJQQc2QS31TXxuey8gdU2tU11DY241DMb/UNehwhKwJBFSM0NJS5c+dWjPzZsmUL7733HkVFyg+/PEJo6dKlioJM8L/Nm5QVmZu+C7E00sfKvj9zV3jh1Fodd+/fTmT4UxsXUvMymORozYxDKeRF+uAwcCFp+bEM1jNm7sUH3N06gq8btWHlzv3s8PFhz8FtdG9eA9Mp/hSE+VBH24wz5V1b8kPp0d6IdUH38Z3ZmR/0urN17z585P32rKJ1jer03CoJSpwkKz+3ZkeMqq6iLJ7BbdvgvideKpdv0NvAkC3BckmfyeCOGozZWikrWytkpYwFfWvx5Zdf8fG3TfAOf7zQTY++wZH93qxbuYAO6jWxdtsiLVVmXXZcdFq5kYT/vH6YOS9/ullGOv5uN3tMBmwmPfIobc3HES8ZzbF5PbCbu5+E06vQ1erJTekyH948Rhfr1uhpa6Jp1AYzwwZoWIzhgcqAMm5soM5Xn9Nt2jpUrVTPZP/0dug4zVaMxnIzrUfvRSqxKU5j+eQBmBjooqGpg5mtOXWrN2FTUD5F4dvRN7FFTmFUeHUxeqYOBKn6V6edW4leu37cLSxlo31T/vnxd2jpaqOhoYm2ZhM+/U99Vp1TpkZ4UYSsCARVjOLix8cJrl+/XiErT8pJaelr6PUmeKO8SVlJjQzm7NloikvzyMjMk0rOIHqY67HmqlxV8nyUWZedkT3j6tJ+9Ji2Fr8l45i89pS0JEGRdXnuxWSidkjb/dyMfiOHM2jQIIYMG86okSNY7BtG1vUt1NZs/UjW5TB6dTZmfdAD/Od2p3ZjA4aOGMaggYMYOnwEI0e4sfliAiVR+zF8LOtyHEOtrSqzLhsase2G/PnKoH/7VozeFqzcTmJbX1ss3OWmkRJmOtTEZvRWDi7rh6blIKIVxvGQg55DMWvdgSGDhzFn5XomORjRbfRmad3TWZePzR/47KzLpSkMbNeQnmskUUq/xCBLOwJvhNGne1+OJRVxeUE32vSeJ22XyYR2htL5u+Ls7IzzhFmSYBnT3mUDym+IMgJm95QK7s+Yd+rZzU3lhGwbi1anEZzcNQdNDTuuq6Tj/JpxNK5voDx+zwGMmzYY4ya2nJG+asK3uaFlOgF504uL+2PYa05Fc9WW4S2p5zRfuoJMxuo3RautAz3lY0hTz1696TNqASHJomZFIHineJ6sCP73eZOyknRyBS3qt+WkoqNICb6zeqHdZgyK2v3iPBITYkl/+LhYy4RsH0t14+5ESy5dEncQG30DtG0HcyBMbu6JwkXLgGmBaZTc2klbdVN2lpecZYksdhuvaE7Iv76JnzVMHpGVUJztDFh2PZvkU/Mx1LLngtztRSYthKnDJ3EiOpfSyD3o/2T0iKzEMtjKUlmzUhxOj5aarL4kn68ETwcNzIeuU/R1yU64Rge1WujOlju75jPFThPXNXJzVyKD9RrQbcEZxf6WX3/PsB2qZqD8REZb1aepy0ppplAhK13nVD6no579Meu54mlZybpIZ52aLDieJjlOOJ7dHFk0251p65TNNLO716OLx3Fp3R3atajFrIO3ycrKJGLXQup9+DEdNyhHKQWtnIj2D91YtHwkNpb9CVVktX42WRc20VZTG+2GGozcpDyPjLebGVpdppCWlUVmSggTW/7IJ0bDFNmVvfta0m6MLG8wX3ptMWwt0XducnC5M1/++y/0XXhJWlOIp6kW7fpsI1M6RlZWHF59ezFv/UXFfr8HISsCQRVH7rcid7AVsvLu8SZlhbIMvKf2RNfAAkcHe9p16IdfqGrYfKw/6o2/xf1wrHL+Ea5vdeUr3S6qfhXZTGj5GdXNXJGKZumYN3FuocXYo/KoGzi1yh2zliY4SQWcnbkJFl2nEJJezMMra/m2mR7+5YfPDaFbOw3mnJbP/5CdkwZiotWGnv2csZYKuI6DlxNXVEppuA+a1XTYcqtcVmLoZ2bKBB+56SqbFT3MaazXDt/wFGLPbqStRhPadu3JwKGumBk3wHLZIWm7AiZaN6X/PGU/jqSzS2lcVx3vi7EcWNgHLV0jevRxYYjrCBzMmlKny2RypGuaoqVGx5mVI3v8ZvfG0HHpU7KSKh2vkZ41pxS38iHLBtdAz3QcsWmS+GUHYWOgxrQAuf9HMUc8evFXZeHMTy20afTTj8wKiOLGpom0+HctvM7IHXeKmNVJnQGep3nuKJy0QNr8+Bfe1xxb0YQkkxp6EJ0fP1UKQLW6aDeuhWb3WdJzKsDVqhXjfOTOtXBt12S+/od8Hf/FvL0DLTU1WRKgHEklZ+bWq/+9SiI+Rdd6ABejHz7/Wp6DkBWBoIpz6NAhvvrqK9LSFF/3gneINyorCooJu3CMA74nic9+pJQrSOfalUBi0hRG8hi5KTFcvnGbfNXmydFBhN9VSU5ZHpHBN4jNqCzC02Ku43tgPycuhFYU7MXZ97ksbZdRfviSh9yOCCEhs7whAhIiLnBw/wHOXr9b0Ym19GEKIZdvkJIn15dISIXu3fAwYlOUnXiLc+I57X+IsARltLXM+FAOHzhEcEwaeVmx3EqSr7OUuIjr3E1UCY90D25fDiQ8QVkDdPvKcQ5I+4TGST8eClMID5feKyXE3wjhVkJlE1lGwh1CI+891cE2734UgdfvVIyWSbx1huAopbyRl8LVKyHce6i6fklmLpwNkMrjU0Sm5kj3KpKkjGxiA08SGFw5LDw7KYzrNxKeLwjSfb8VcprLiU9HmUu4G6Io78+ExpKbcZ87t+MpKysmIiyIxMzyB5BN+OWTBJwJJru4mISkSFIqHwXZ9yMVxwgICCLryTf8gghZEQiqOCdOnOD7778nNfXX41sI/vd487IiELwehKwIBFUcuaD66aefRM3KO4iQFcG7gpAVgaCK4+/vj5qaGllZLyFRiKBKIWRF8K4gZEUgqOIIWXl3EbIieFcQsiIQVHGErLy7vB2yUkZh4e+LmSH4FZ7qBVtMfkHR7x49o+SP7fUof/4ILwchKwJBFUfIyrvL65SVK3uXMHLZYUXckXIy757FrXtHLC3NcZmwnOisp+OqPEnM2Y2KVBFdZu97aiRMyAZXGrTQYsX13xfd9EUpvHOUnm164xtbPtamkpLoE1h3sOVUvFw8l5GXl0fRb7+dl0ZxQgB9WjuyP6Ly2iL9F9C0rh6uK/fxaxFon6Isn+BjhzkXdvcPy0bo3rHYOc9CNU7rjSNkRSCo4ghZeXd5HbJSmpPAzvkDqf7x+zQdvFG1VCoPM24yvI0ufWbuJPTGRaY6t8Zy4Coyf6N0DN83QxEb5OsmfR8PVFaSyjSnJlJB8zVTzr6aRJz5N7xR/0qLLcogL49RmhHFlm1bicmVCsbQXYx3X8WrUaZnk3TEE81GNlxUfYyv7BlC9U9/ovsEf7JLfud434yLWBuasuXuI+OHfyf3Q/3Z6ne+Iirtm0bIikBQxRGy8u7y6mUll00jHWmm1oaunXSwnri+ojbk9p6JaOoMpCKQe6wvVlptOBDztAg8yo2dU6mrp0tHczMWHI9RLYXs4L0M7mmKVjNzPE6Wh6aV46yE4HvoEIGhqlgjEoVZ9wmLjCI/N51LAYc5HlgZg0VJCZGXT3DI/ywpWQ+5GxlOysMyisJ3YljHkl237hF85gi+Z4J4WP6GCnNJSLrHw6xUNo/tQKNmlviciyA7J53QsDCyy1u6inO4FRzGfemEZbn3iIiK52FeGhePHebYhbAnCvcyIi8d5dCxsyTn5BAbdZMHuY/WTVVyyMMKI+cZitcnF3bj319+yZj15bmJpMtLiyMs/C7ldzc/OYbwiGjF88h8cIeo3Dxy70Zw+fwxjqwZxnf1tFlx8FZFjUzk2dOcOnWKkLtJqiVKytISCJSWy+viKmLllJEYH0VKturdFKRzWbVN5P1fCYX7ChGyIhBUcYSsvLu8elnJI+TyNeKyyji90hmL0csrmoEOz+mIWX8vVR4aifxQepmq4eH7dNTaRwnxmUADmz4snjEEpzHbKvY/usqdEZMXMMiiHVNOKBXo0tbpGDTTxLprV9qZWDJh1XHF+bOubKRuvV9wHOzGwD4O6LdqieP4zcoouKSyZZIzxsat6eroRM9OxlSvVYfdd6WCONaP1l/WQK9jb4YO7IW5bksshywgQS6Tow+joW/A8es3Gd2pFd9/V49BMw8RG7QLdT0DzpVX9qQFYtNUj6W3SikLXYOael26OvdmYN/u6Ku3oNOEbShiSZdlsHFCDwyNTOnWy4ke7c2o3lyXbeGq9AGPUcjiHlo4jt3O3ond+KxGQ6YeVqR/ruDwDCcsnJeo5KOEXeO6YD1wg/SqlFUj22I3ZDgONWpQ66sfqfWjosDm0+aupBRnsWJ8V75VFuJ89O0vLDuqjDxbdO8GE3Wa8E/Vup90u3DgtnSGspt0M2jB7CNJlBXFs9jJlI9V23zzizreF379Gb8KhKwIBFUcISvvLq+zz4rvAgfMR6+okJWdMzti5b5JNScTx6g2LZmwIVI1/2xCto+njvVALgfswqFtd67LgWDL7jN3oBPbLgQy2tSUaefTKI3zxeiXBsw9KOfgkX7c3/HHWt2Q9YEZlEb48NkPvzB253UKyiD72nqa1tfHJ7GY5OMetNK05pjcnkMBZ1a58ONXX7BXPox0TMO/f0ufJSfJldylOO4whr+osfJCHjw4ga6BPmdT4N4+d6xsRyn6a5SEbUfd0JRAOXK9TPpFOrYyYcVt6QAR62he7RsmewcralQyJYlqJl3HobhS4vxm0lzDjtOxcp1PIWeW9uff32vhc7M88u0jFEfj0lqdBr/Up/nXn/OhniO3H+0vU5bGpPY6DFpxXbUgnYn2mgxde0d6nYy9ZjVq6Dpy+EIEMTH3mddLn9auXkSlpHN4mi1f/bc2G05HcPv2bTa52lGzdn/ipAcZu3cCH/6nLmtO3yA1JZYFAx2YtvU2xYl7MTZqx0nJugpurOWrTz5mxs6zJKcks821L0Pm+732jrdCVgSCKo6QlXeXNykruzzsaDehsg8LxXcYaNKCSd6/JSvj+Mm8H8nZ93HtasW8gGyK4g7i2Gs293KiGaJnzJyLycRud+XbZrbsu3SDK5cucT30HEN06mE1M4DCMB9qabXmTHltR8ENurczZG3Qffa4t8d2nJzpWEXmNSyMWrA9Qrryu3swqNGanXJJreA+w9q1ZfKeROnlSfSMDDibCol7JmPVfhSynxRL59Iwav2YrHRWN2WlJCtlYV5o17DidHnw6Ic3aW+izvqrqeyeakWHKXtUKyQyztLewpSNIU83o5REHaDGR+9RU7M7VyNvMsO2BTaT9qrWSiSfo7OGARvClPUqZamBOJobsk3ue5NyGNOWraT3Xi5BWcyyNmWWv3zB0Tiafs+UQ7LUqEjwpbWWHQGyieVGM9VaFzUze4ZOW0W0qs0odq8HhmYDUewlidLs/ja0aGXKsAnTFTL3JhCyIhBUcYSsvLu8SVk5u8wZA7s5laNUsq/gaKzN8ou/nvZBlpUfTXsqROD0rJ70mbODwA2TcFvhJy1JoL+uEXMvPiDSewzfVm9A5+7dsLe3p2u3bjh27cLkHdfICt5Kbc3WlVmXH4bRy96YjVeT2D7RBrvJ3qoVEpkhWJpoSLJSLMnKXklWjNn+SNblIZKsTN2fVCkrUmEct2sibctl5YY3LQ3NuFT+tnKuYq/e+jFZOZagqmfIjaBDG3XpOh7g425F51kHlctl0s/TSZKIZ8lKzNHxqGu144JKBOICptCkTgOOxCrvdsr5FegbdSZMddl3NrvRvFlbSUUksfIZh76lK/eUqyhN8MPOqjNnk6WZ2AOYqNvh+0hP4fv+U2iq1oFTt6MIDpZTUxcTE3EeNyczGhlO4F4hHHDvSsdhPhQV3udamFI+EyLDWThKlzqmA7ggb/SaEbIiEFRxhKy8u7xJWcm4uhXTZmb4Rim7tt7aNx0t3V6EZEsFd1kpBQX5FJc+3VigkBUTJ2KkVQU3t2Hd1pp2XYax47L8/xtDP21DZlxIoyBoHaatLDgaU96zNQOfRQvZf+0+D4M2UVPTtFJWckPp2dGIldeziN43Dg2TnoSpuobEB8yVCv5v2H1HOqFKVrx/TVYkKUmQZKWNxTDlsN14P3Qbt2BriHJI8YMzq/mpniar75apZKVtpazkhNPeTI31V7O5vcONFib9iVSdKtZvFj/X0cM74sk+K2XsmdwZjcHLVPMy+SzrpoO2y3LF3LmVXdDp5kFmQR5x53ZjVu2/NOq6TNHf5+C0brQbtLTiucQf90B/4DCiCqXnknYJ63rVGLH1gmIodkLQAdRrfIW9x3GSrsyh2pffMf+a0pAyLnhSp/7PnE3KZ4mLPkM23qQs+RDNfvyU8QeVNTNFsQfR/qkBK86/znFSSoSsCARVHCEr7y6vU1b2e1ijM2hBRaEoF6i7p/XCxKgTQ4e7YGbUmrn7QpSr4k9gqFUHD//KETzlBG0axietOnBbMawljeF1/sl/9AeSJJf3ZTfp1rAFror9CvCZ1A99tXa4Tp5AP3tLNIxcOJmQT96V1XxRXx2/8sFEOcF0atMcj9NyF9tEZvW2wKBtF0aNGcMQJwtq1q/LXkkuuO1D88/V2FguDCXR9DLUZ+zOBEg6StMWzTh6HwrD9tK6Tl2cpq8kJT+DDYPNaK5vzZiJk+jXpT3/bdWMFZL8lIUsoeHn+vjGqWQl+wammnVYdEoyntJ7eDibod/OkdHjx9DVpjU/qRuxvdyiyilLZ4DZz5hNOaBaoCQrdBtNPqqP+8l47l9dSP0P3+df//gnLS3NafLT9/RYc1naKoexnS0Y6BWk3EkiYvtY/i6V0Q3auZFHKUdWD+b7D//JP/7xDz74++doOE8iTva/4him26vzr7+8p1j33n+/ptMcHwozQ7Bt1RLPixnSe8hm6WhbPnnvb4pt/vnpZ2gOW0x8vur9vkaErAgEVRwhK+8ur1NWEsJPc+zKrSc6VhZz7YgPixcv53hwxSBmqQxNYO+uzVyNe3rkS3r0NXb6nyVbZT2Rgfs4el7Vz6Usi8DDRwhKKt+vhJvnD7JiyWLW+RyhfHFhSiS7DvuTpKq1oDiDcyf9CLv/kOJC6cAF0vy+jSzftJ/oIF8s9S3Ye6dYkok4/HYdqQxeV5bLxePHCY7Lg7z7+B7xUx2zjPDT2/HasI17slSVZnJi1xoWr/TmZkIi14NOcUsOKJNxm8O7jpNU3hZWnEnA0YPcvJ9HcbF0jqJMzuxbz4pNB7hzbTdWhpbsiHqiCaXsIYFHd3DlztOdQS6e2s+Wi1HSq1KubZfez/IVBCemEXv5FHcVJ83hbMBhwpMrB26X5Uazb+Nqth8OqRhGHXzYR9p3OWu3BEgC8whFqfivWqFYt+LgOeXw75xYDvj5kVyxYR6nvdcrtvHafhBJYd4IQlYEgiqOkJV3l9cpK1WF2GNr6OYwltB02YbyODC7I82NRnCnsjx/LUQfXY6d01huZMixS3LZPaETLdoMJfo1X8f/CkJWBIIqjpCVdxchK09Tlh3PynF9MLOwxLZtW+x6DME3/NVExP01SjLiWDzSWboOM2zbtcGm6yiOhpcPKRL8XoSsCARVHCEr7y5CVp5HGSlJMdyNiuM5AWNfE2WkJkZzNzquMlKu4A8hZEUgqOIIWXl3EbIieFcQsiIQVHGErLy7vG5ZKUm/TVhYBOWDicspTA4nPCLykZFCzyc7MZxNmzZxIuzpkULZ0RfZvH07Icm/nl/oj1KSGcvRvceIyVZ1sH2Esqx4Dh4+RMKbSX2jIpf9PhtZvXq1NG3hWuQjHVxKswk8FkBE0mNdZN8ZhKwIBFUcISvvLjk5OYpn/zpkpTglmGFtfqL9MM+KZHoyBQkX6KNXDYcJXi8kKxH7ZygKlK/bTH0iq3EJ3oN1pHV/Y9zZV9O3Iz9kK80/b1U5dPkRSu4ewdDUWBG7pSQ7kuMnL5L2OjvD5txmlrO6Yojw+++/L03/5Mvq6mw6oQwmk39zBzo6Zuy9/W720BWyIhBUcYSsvHxKSkoUQ0/f5qm0tJTU1FRatGjximWllBC/6Rg2rct///sp7dxWqYYvF3Fx93h0Gtbhiy8+psv0R6LG/gphe2fyQ+3qqLWw5cDtylqC0tRrDOnZgi+/VWfW2cczA78sCkJ3oP+zKbsrwu0/m6g9U7DqUBkV9nUQvms8Nb434WRUFrmShObk3GNuX32++MWRxGK4v2cquhZDiH79IU7eCoSsCARVHCErLxc5noSOjg6GhoYYGBi8tZP8xa2trS0JxH85ffq06upfAaX5+Hj2YOYGP1ZN7orl8EWSvkgUZ7B+piPzvE8w39WG9uPXKjb/LUJ8JtGgrT2j+rdn+JpzqqVwa/9yhvbrh4ORDdNPKLP6FmdEsmRcfzp06kSfEXO4nqis08m6eZSR48azZ7cPbi72tO82mINXKwUnLcyfCS6d6dR9IGs3bmT0mFGcTSilNHIfprX0meC1nilDnbDp4sLWs3cU76fs3lXGTZ5CcEQYg9s1o1q12vSZvIO4OxcZLZ0rojzASM5NZg4bx+HEMspijjB2+jR8dqzDtXcX2ncfwr5rlYqTHHKUcb070LnnALw2rWfSlIkExDy7GefCxuHUMnMkIvWRJqrCB5w7f5IMya2OzHHEou8CxbUW3T1FP6N2uG88qtgsyn8J+motJHHVZKTPNWUzXWoQk0dP5Vy8stEuZJsnjlYziVId/uTKKQxfd4qo81uZvGkT+2ePQadFS/T6uROaXh6hpZAD04ejLglxi1ad2HWpMttyyYMQJlsY0lJap2vnQkCCKthMSbb0f9GTli2lfVrasPrgXeX/y59EyIpAUMWRZaVVq1ZCVl4S/aQCU66tkPtVrF+//q2dNkqF8LJly6hVq9Yr/j6WCmXVqwOzHWg9eKGyuaescvmm8ba0G7NGNffryFmX69kMYP+GhXSxn0KK4iAFrJ/ejxlb9+Jqbs6UUw+kEjmBSdZqGNiMYb/0/tZP7INh2yGEp5ZRELKJjz/9DLOhnhw6doxVY+2pr+HIJam8LL13DDut5vSbtZ7j/nsZbdeAv//jI/bIiXQS/DF5/0Oa2biy79hJfOb2pk4jc47GSxcR70tz6XN0IjoTf8+eaGp1xO/GA7Kub6OxulZl0sS0c1jW12TRTakIDlvNL9Xex6KnO4dPBrBqTGdqaTpzI1cq5uNPYqPRnAGzNhFwfB+jrZrzly+a4R1RHsnuccoeRuPZrzEfftYCt1nzCIp/dLt0JnfXZuz2KMoSLtO1lR49h2/jQXYuV7f2oUaNupIoOeHkZE+D+tXx8IuSbmk4RpoN8bos3ZSyVKZ2+ZlPP7HjcqZ0uJwbdNU2YtG5OPwmd1IU8A3NOtG5Y3u+r/YxjsvPSBs9ZNUAS76t1ZTuTtKxO7ambkMDDtyVZSsPj4461NFoK53TiQ6mjflWdwCxkhddXTOQ6j+0wrGHE44dLfjye222XP/z301CVgSCKs7Ro0epWbMmaWlyqHHBn2Xw4MH06dNHNfd2IzdXyaL6ujrY7pzRBbMhKll5hDVjrLF+YVkZR822A4m+e5metm3ZJQdozb3OiK7DuBoXwQgDYzwuppIVMIdfmlhzvSLgay4TzbUZtjGckvDtfNNUj4Pl4fZzL9FOT481EVlcXtoTIycPZTRWidI7+9FtWpMdtyW5iN6PwVcarAsrXxuHi4ER0w+mwIOT6BkacFb6GD04MBVrOzdFn5qSZ2Rd7lSRdXk1Gj/ocLg8eG92EG01Ndgc8pCzix0wcF6oyN8jUxK5k1YtDdjyZLj9RylK5NTh9dhoV6eJmgbDZvpRLMtcQRiDzNvgumAe+iZ6DNpyRbm9JB22tath4e5DUmaW9IMlha3D9bB0WUFpWTLDLHVYdS6d++fX0UmSihGdJxEkyV7wquHoOSyiSJJE13Y1+MZ2IvGqh7pygDVua4PIue1N42+/ZOaO82RIP4SyHoQzRLqG3guvSlsV4OEgyYqaHf6h9ygoyiDi/DXSpGOcX9OFH79XZ/Gu6+QWP+T2zavcvP9sQfs9CFkRCKo4x48f5/vvv1f0XxD8eWRZ6dGjh2ru7eZ1jwZ6WbLyY+s+pJWWsKp/J0avD+Xe+cU4TV5PYVk8A3SN8LzwgIjNI/j8p2b0cBlAn969cRnUG8O6P2I2/QgPw7bzi7YZJ8slQc663NmYjVcS2DjOis7Td6pWSGTdoK2ZNt7hkjbIiQxrtsZHUTsgURrPMBsrpuxLfCzrcvzuSbS1Hanos1Icuh1149ZclLMYy2RepotGZdZlnRrWBJS3QOVG0L6NOhuu3GPrZCscFsiZpFVkXMTBrjUbgp8ebhR95gh7z95WzcmUEhqwkvo/a7LuYgZlSccwqvYfGmpoUad+Cxadl6tHIO3iar744D3+9t7/lRfS/PPvH1Cv/3LpCLlMtzZnincAM4b1wWP/YTwdO3H4/Fn6m1iw4FIGFF6jk1FjFpxRHo/iOwy2ssNLWheyyoWP/vp//FWalMf+Gx+8/x/6zJRrXSTKHrBxWH+cbNSpazWe8KTK/4qAbR64dO+Aeh11doa+nP5HQlYEgiqOn58f1apVEzUrLwkhK8/npcmKSQ/kgcsJByfScfgE5ruNZsnuCGlJPP10jJh1KZXkw1Np0sSUjf7H8fP1xf+YPzs3r+fQlTiyrm2iluYTWZc7GbPuegqn5jnQpv/iiiYqHpzCWLMePrekq36RrMuSrMTtnEi7jm6KPDilET601DYlsPy3QMZ5WrcwqpCVp7Mut2LjtXSOz+1I60GP3JP7fhhrG7E59GlZOTOvIz9Z9HuiQ28ajib1GLM3hlj/cdRrZsGV+Pv4zexKqy7zFTU2CQen8VNzO3ZcvE5ISAhXzx5h0fLlBITKRyrDa6oL1kMH4OgykcSCDDb0sGfSUBesRnoqcgQln16MmVUPwlTuVnh7J1YdOnO5sIyjI21p1m4UF4NDFMc+47edFctWE56QyobxnXH3UeVzoojRNnVpP3EzV3yWMGLcFtVyODezG3UsBpHwSDecP4qQFYGgiiP3X3jvvfcUBZfgzyNk5fl4u7dHv9/cp2Rl5QgzzEasVM1JZEWxzmshp+883Vfh+pZRfKljj5xXkOxg7GtXp5phHy6mygV+JM7NNRkv91lJD8LFSJ/B0/eRkJ5G2KnN2OjZsO5SMgVB6/m2qS7+5f09c0NwsNJg/qVs8mP2SjKhxuQtJ7gZdgWvcVZ8/3019sl9ViJ3ov61NptvlstKDP1amzBhTyLcO46apjoBkpSkH5mDTpN2+N25R1l2KE4ta+I8azeRkTdYPbobf/m5EV5Rkg7cWE7zr004Ivd5kZG2tdBvyIrALB7e3o9hs1ZM23aaWxFXmDfAio9r6rLjGX1WcqJ3olftHzSx6Y+7u7ti6tFOjW8bWHP9fhGHJrXHyHWDYtvca95o1GvOjshsShNOo67+C/ZjZrFgwQKmD7OnjsFIgpOVdrBvsRkff1cDr13KbNib7evxt/+o4XVJmTQxYEEfNDq5U35FV9cPQ8d2GPI3Sby/B3VrqzFm7gLFsYfYtaTjCA9k1drl2pS/fN2MkdJ1Tp0+BZPmXzBi6wXuHJlNtb98TOehk3GfMo3e5s3QdZz1xBD1P4aQFYGgiiNk5eUiZOX5+K8aRZ+Zm56SlV3zBzFo/iOFiFSIWpo0Y96JRzIxq7jluxCTXmOJUwzsKWbjACM6DV+tzBBcGo27Qw+WXFA2HaRHnGK8U2dsbK2xbt8Nzy3nFTUCD0P3YNalFxfKqyLyIpkw3IkNV5W1iwkXtuHUzhRL+74s8pyJnr4eu+SalfjjOJn25HD5iJySJGYO7M/ygGRIvUT3Ht25IDf35MYww7k1Fs4jkFuMks5ulGTICKuOfZi9eCmDx/dnV1wpZXd24GDan8D7Kll5eJchfTqxvfw6zmzGwdqUdl36Ms1jAsZm5mwNf3b/jdTgAHq3bawY3SVPrRwncytJLuZzmDesGzP3hio3lHRhweD2DNxwSTF3P3ApJo2/VOxTo8NQrt2prLmJ2D0adeuelLc87ZZk06r/AoWMyCN9vCf0ZtiM46paqDL2ze3D0Dl+qvkC/FePp96X8vV8TYdBi0lQdbcpzkphlVNbvlZcazVsZu0lXeFH2Zze5EqNb5TvQdtmDJHpz36/vxchKwJBFUfIystFyMrbR35eHkUvOP71fsh5jpwIU81Jhdz1NWi37MipB79/AG1hQT4lKg+RxSov/8nYvc/nfuhpDgfeVM1J13FhBVqtbDilqEH6PZQ9JYcyJaV/fkBwaenj1/Lk/NuEkBWBoIqzYcMGhayIocsvByErVZv0a7ux1taj/yRPVi+ZTVdzdZxn7K4YHfS6SLnkg6maNv3c50rXMYP2ujr0nbObwrfXB95qhKwIBFWcrVu3KmSlsLBijKfgTyBkperzIPwMC2dOYuzYKWw7eq1i+PDr5n7YKRbNHMfY8ZPxPhryUoKjvasIWREIXoC4uDimTp3KmDFjcHNze2umSZMmYWJioviADh06lHHjxj1zuzcxjR49WnE9a9asoays6vycFLIiELx9CFkRCF6AkydP8sUXXyiiNfbv35++ffu+NdOAAQMUouLi4vLM9W9qGjRokEKk5Giwci6bqoKQFYHg7UPIikDwAsiFgbq6Ovn572bG0z/KoUOHFPlrqlITlZCV51CaQ0xS6lNNGVHB5zh8+AjXo18szk9+RhLnz5/n1r3yZDuVFKRHc/7SJeKzX7wj6+unmPhbN4i+93JGufwqD2I4f+YMZ6TpckhlZ91yCqTvo8I/+jugNI/oGyEkZVaNz6aQFYHgBZCjxMqFglw4CF6cPXv2oKWlJWTlFfHaZKXoHnP7t8Nw5MZKWZGWrR3rRGtTa5ycOqGr1Rr3TeeeOXLlUW4emq0oUGraz6uI76GkjINjzKR1/2bSufJwsa+TQmJuBXPn3m/9IEljonVTBsyTw86/OmKvHqBd/e/LC1/e+/fndF20RxHnRCb46FLcFm4n949+tJIDsdZRZ9PVqtExX8iKQPAClMtKevrLCG/07rB7924hK6+QVy8rpcSd30V340Z89vE/0XXbqloOt/dOp04tK05Ey8E3yojyW4Cmhhm+5aHsn0PYPg++/u6/NGzSmeNxj9SgZN9khHMzPvxPE2adezkh2n8XBTcZaWPN7lu/1Q02DXe7VgxZeE01/wooTWdS2x9R7zWFsNu3uHnzJhd85lPj739n1D5lDcui7q1xml2ZtfqPkJ6ewsO3uRLrEYSsCAQvgJCVP4aQlVfLq5eVTFa7DqDvmGUsmdwJm/FeFTUniSHnOOIrh8hXUXaDLkYt8axIT/xsQnwm08DcloFObRm7rbJ2IvboWob0dqS9njUzAlShaaVCe7+XB/0HDGDS/G0kPlQuzom+wMKVXlwKPMnccYMYNHYuV+NUK2VyYtk0b7xiv9lr/MhS9e8uTrzGskXrOXHhFEsnD6ffqOmcUUTZLcVvtRu1vvwK447uhEbdY//mRey/XB7Pv4zL27xY4XtDep3L1I7qDF0crFiTcG47k2esJFpR5VHA5YMbmOA6lAH9h7LE5yTZihuWi5/XSjYfO4fvulkM6DeIlQeuPL8WqjiCHg1aMmr/HdUCJcF+O9keGIbf8onU/fwTarWwZf8N5XfSyS0z6datG90cR+F7+ZEmuexbzHTrpVg3YORmklUnvXf9ACt3HlPUlMVd3MW8dXsqhnffPu3Ngk2+ite39m3B7/RV/Fd6SMfoztT1vq99GLiMkBWB4AUQsvLHELLyann1slJC7kPlszu5rDttXJc/t4AN2TSGppodufzguUWwghCf8dS36c92qfDr2sMTZSNECd5zhzBxlTcjLSxwPykJT1kGy/q2ppVONxasXYt7LzvaOk0nQXKSvKANfPb5Z5j0nYTXutWM6W5KC7OhhMpRcfNvMr6tBvptJSHYsJLhdpbYj1pNlnRZJTd30+r9T1BrN5RVa9cwvZ8VzfR6EJRcyq2TK9CtXQeX6bvJyEigj2UDBq29oLg6WWbW2huh6yYnSCxkaidNxq6PISvGFxsdXdzXnSKnqJjDswbSQsuOheu3sW7JZIwa/MKIVfIxipimXofPq5vg4bmMVfMmoNWoKR67whVHf5oiLuzwpEb1b7AZMR/fYDk1dTk5eDgb8rcPP6RBKx32hiWycUonvqrTgObNm9O8SVNqNbbjeEyxdA/TmONsTK1GLVBr0ZxfvvsOTaf5ilgv20e2xnLYaoWsrBumi+mAjapnW8QiF3WsxxyUXpcw37Yxf3n/U9S19WjU8Gc++vxTvM7ImZ1eL0JWBIIXQMjKH0PIyqvltfVZkfBd4ID56BXPlJXYgJW0+rIhU3c/3Qn0SeREhjWtBnI77DRO1tb4JkoLC24ytlt/zkTeYJShMTMuppF3cRkNG5hwpuIjl8oIE20m7IyiNHw7X9XXYFt5Br7005iq67ImMo8YH1d+0XCivE6EgmDsW+my6kqmdKEHMfisGUsuqGoeisPo0rwVc/3kk0TgYmTCDsVbyGJwRw3ctlyRZyRK2dLbBssp+6XXhczqrk8Xp9G0t9Jj7oFbyk2k5cEnjxNRHnpfYueotlgOWC29KmGmZkssh/ooV0hsHWFBG+d1z7yf5Vz092FsDwv+/UMD2g+aQGiqsokq+fwK9Nr2R5nMIJ9d29ey7ZpyrizpLEatarLyQo40E0M/rc9par6Q6LwSilIj2LLXn7yyLCZ2MWbEBjnS7wOG2+gx64iqNqssgcFt9Zl0Ilm6P6G0b/YeLRw9UCZVfkAfCzNm+5UnZXp9CFkRCF4AISt/DCErr5a3QVZCdnlKotKUKWtfrP+ELCs/mfUlrbiAeb06MME7ivTrq3FwW8XDkjgG6hrjeeEBtzYP5z+1tRg1eRqTJk7AfcYEzOt+h5G7L/lhPvyibcZpWXRk8sLo2dGY9VeT2De9E980t2DC1KlMmDCRKVNHov7ddzhtDoX4QxjWbM2OKFVDRmk8Q9pZ4r5HUpvCEHoZGLL5urwuk0GSrIzZWt5MVca2Pra0VcgKLOjzPV98W4PqNZux6OSj/WvyCDywmbnTJzJ+7AiMGn6P7bht0vIiphnq4rjwpHIziaPzB2DWc/nTTSqFyVw7d4EHFa1apdyLPMfQZj/RZsBCRW6ks8ucMR+jFJ28pGs4tVHjq88+5p8f/Zd62s35pYYJR2KU0lSadILedtZYajWjxxjV+bICsdc2ZPVV6XOZFoCJtil+0crtiyK3Y6BtzEl5sNYdb/R/0WNfuceknsPe0oW9t15/Q5CQFYHgBRCy8scQsvJqedOyErJ7FmpNTFh2LEa15LeRZeVHkx7InhG5bSRdxs5hw7QxzN0md1hNoJ+OEbMvpZC4bxL16usye/Vqli9bxkovL1YsWciOc1FkXttELc3WHC+vPskNo1cnI9ZdT+HMwp401rRl6ZrVLFu6DK/VXixbtBS/0GSK7+zDsIYx3rdV45BKYiVZacuUvfGSJATT09AIn3C59iKTge1bMXKLsl+KzMbeVpi5y7JSxHT7BvT0PEuE/zRaqltzUTF4KYWlLh1o03GIdN6VHDh5gZWDregyQs6WLMmKgQ4Ocyuf07H5A2nTa+XTspJ7BZumasw8+Hjfn6x9M6in3pM46Qms7mHDjP3KpqGNIzuibT2Sbdu2sW37LlbPHICO7kAiH2bgM2sG/uGqz17SdRy1ajF4RxgPr67FRL8b4ZKfJByagrGjO6ochewcbUntxoOQ655C1rui3Wmc4rVMgt8c7DoO5O4b+DgLWREIXgAhK38MISuvltcpK4c8O2M6cmmFrCRfXIN6zeqMXn+W5JQHxEZFcTcqgRz5UecnE3DsEOH3H+n0qiJ4mxvf6jtwVz5Q6nnsGjektlk/AuLlBXfo3UqHyWdTpML1FF219JnlHaLYLyf2LAM7dGfDxQcUXN9I9ZYGHC1vjci9QXdbHRZdySb7xlbatDRn8ymlyTy4uptuNn05EpNL2e3daH+vx9Zb5bISwwCLNkzaJW1bcptezdTwOHxXWlHKGhcDtDpNJj4tk1sX9qFZpxrankekdflMsm3FsOW3pde5zO6ojtGwjeQ9jMD2h+/ou045SujenbN0aVWNmr2WSnMFTNHRoPMsf8U6mSNz+mLitOxpWZGOuWCQPv/8So8l3jvYsUOavBdj+sXHmE7aQUlhJA4GWvSfvpvozEI2jzRBs8NITpw4wfE9yzH+4P/4usci6ThZTDH4hq/qdWHzjp3sObAOs0a1GbMznIidE9CyHY38qC7McaSecQ927tzBsqn9+Or999Eft1dxJeuGW2E7slIOdk3uinm/JYp+Lq8bISsCwQvwcmUlnw2eo1h6qPJX2+8nnfVThrLWr6Jl/s9RFM/aTd7cePBypeJFZUUOtve2hOQXsvJsji7vg92ktSpZKWO/qy2f//dLNHSN0JWesaaGBq1MnPCNloqy1FPotPiRac/4/wzbPZWG1v2JkjvDSoX4Itt6aDvORqE1pXcYZtaWGaeU/S+iArbhbNYG6/Y2WJhZMmTGDh4USwVX0Faamtqg2gwkURjoZMmyQElyJK55L8LepDXWHdphbmbLpFUnFDUHJbf2Y9m4HbvuqCSqJB63Lp2ZtT9amilgn3svmmsY4nP1HhlRZxncXg+9Njb0d53OIJe29Nggy0YBs3uY4LZS+fl9eGcfbSTBWncmnmBfTywNtbFqb8eg8VNxH9IJA5cZZErvbr6VOX0WVzYDBSwdSYdB654hK9JlZdxgxWh7vlAWvPzl/76nz2wfYuVhxoVRjG9Ti7//ux5rb+ZTkHiB1o2/U2z3aVMzenYyo8eEjYp8SJmx/jia1FYV4J9i77aSDGmFz3Qnes5RjvbJjfPHtuZ/Fdt0GuaGcycnFu6TRSyNiZbGjNmklEVK05g1sANuW64r518zQlYEghfgZcvK+rkjWPInZWWd+xDW+P75jm7Z8UFM7KzJX35owwllL7qXxm/JSnJyMjNmzGDpUukXe8nLPfcfRcjKsynKzyHrYWXRmpeRoXh+8XGxxMYqp7iE++TKpWRZEZkZ6Twsevo3eEnhQ9KzcihRuWlRQRa5efJOMiXkZmZJ+z3yv1CUSUzUXRJTysOhSeVmcT4Z0nYVhy8rISc7i7xHzlecm0LU3SgeZFZec1lJIVnpWRSUn5xScrOzeVhYfr5CHsTHkJqt+n8tziFWKgAz8uXjFpGTJxtWGXnZmeTml1+zJCzpKaTlKAOW5KUnSeeNpvy0OVlZkjhI+0h/c/Iqg5oU5eeSlSNJumr+WWSmpJAiT6nljTRKSh7mkJKWjuKyJAryshTbZRTIRysmNyev8rjFucpjpFRGDM7Jkp5NceW9KszOUGwjU1JYRL7idkjPMCWTvJLy7YrJyspAcYo3gJAVgeAFeNnNQGVlpc+sSXiYnqxImlj+5R8bG0dcfBLZBU8X5GWl8jFUM88gM/IAM9dsILnyO/UpkoMOYtO0Hs001alv0pGApJf7TfQ8WcmQCrpFixbRuHFj3n//fa5cKR918eYRsiIQvH0IWREIXoCXKysPmdqvDSPXnlHNl1PI/llDaNWyFRrqGqpJHTWdDmy+9GREz/tM6WrEpA3lwyafJuPyLPR691d0ZHweSTdOs2lnIKmR+7HuYINv3Mut3ZBlRc4NVE5qaipLliyhfv365V8qjBgxQrX27WDYsGFCVgSCtwwhKwLBC/ByZSUXt67q9F16XDVfTil5eTlkpmeSnZWtmjLJyMimoODJ6pEkRls2Y+RKOU7Co5SRmZrI3bt3uLR7LPrdnDl98y53o2PJKays9n2S0qi9tLG2xu8ly4qcG0hTU5OEhAQWL16sqElRfZkopv/85z+KpHbyfU1LS3vjk3wdPXv2pHv37qp38HYjZEXwriBkRSB4AV62rIzrrsOAFU9+hkqJPOuHl5cXq1atUk7Sa6912wm+9+SoinuMtW7FaK8nI2Dm4e3hjLqGLi0b/cin33xDs1ZaaJrYsCe0ss3/SQoid78SWZGzLlerVo1GjRo9Jinl0zfS9ZmYmKCnp4euru4bn/T19fn2229xdXVVvYO3GyErgncFISsCwQvwemSlkONrZmDf0R6Hrg7KqUsXOnUbyoHgB6ptynmerJSSnZJIbGwiQfsnoO/Ui/OR8Yp+L5l5zxeRVyUre/fuVYQA9/PzU+Qm+fDDDx+Tla+++kpR+3L27FlFGvy3YZJreuLjX3848T/C65WVMrJzH+m4qSLn/l3Cwm+T/St9ox6lOD9HUdOWnvd0p+vSwiwSkhLJ+pVawDeP9BlLSyZT1aH2VVOa+0Dx/yhP2Y+dsoy01HukZD9rPNFrpjSftLRUCl7hYxOyIhC8AK9HVn4Pz5OVSjKuzMHIZdCv9lkp51XJitxnRa6xKEcWAXt7e/76179WCMuKFStUawW/l9cnKwV4ewygw2Tvijgrslyf2zyDdqYGWFuZY9fDjXN3M1Xrnk+k/yI++PvfaTVgtXTUxznlYc/fP/6GmReVI1NeL6WkJ8dzL/3Xh9lLnyxmOOgxatmfGc33IhRz9tAKLBt/XPFZqWfYkYO3U5Wr827TzcKE6QfluDBvlqgD01G3G0jkkw/0JSJkRSB4AV6urOQw1LYh3RdUBoj6/SQyxLAOAxfLWWCfTWFmDNciblUMb/w18m9uQ9PQkP0xL19WnjUa6OTJk9ja2vKPf/xD0W8lMfFFlErwJK9DVjIjzzHRyYjP/vke6iO3qJbC/cC1NK/TgGUBMeTlJOM1zArdLrNI/40BZeH7PPj0s3/zc2NHAh88snF+LGOcmvJ//67DzHP3VAtfIyVRTOnhyIFI1fxzSWNy+xYMWqAM/vaqCFg+ki8++jcd3BYrmlPlaaJJXT77xYzrD6X7dn8fluoW+L0FlYDe4+3QdlmkCDL3qhCyIhC8AC9XVgo5sGkBPmflwEt/lCwOeM1l3/mX86VenBzMci8vwtNfbj3ub8VZkQtZc3NzZs+e/dYEhatKvHpZycJrqBOWXUYxUZIRmwlrKP8Pib90iI1bT1TMp56YSwOdTkT+RokVssOd+q3N6dmpDVP3VXYQf3B2C0N6tcdc04qZAeXxg4q5dtQbj5kzWb3rNKq4s+QlhbHn8BFi7oSxZeksPFftIE6ZvllFDqd2r2amtN82/+CKayxJuc2+vceJiI5g1ypPPJZtITJNFvRSzvrMoNE332E3cBm3E1I5f2w3526VN7+Wcev4IQ5ckkPcZzOlozpDFymDo2VHnmXNup0kqC4uLug4KxfOkc69gAOBt1Q1UXlcPHSQ0+F3uOq3SVrnie/V58dIyo3cjNaXXzFpU4RqiYrMm8yd4sGpB6WkHJ2NZufBnLtygYUeHizccpD0R35rpNwIwFNa7uExi5PhlaMJH1w7zdXgKKIv+ivWeR04W1HDFX3tAmevJ3Pn2kbFug07gh+pSYObp1ZJyz3wXL2d5IoVOXg4mtJvfqBq/tUgZEUgeAFerqy8O/yWrMiUlpZy+/ZtISt/gFcvK4Xcv5ciKQOcXtEDc9fljxVeMiU5D7h65iB9bNowcIE/hb/xGEN8xlPfph/rF07Eof8KRWI+WQb2LHLFbf5ahlu0xT1ALlwL2DnZkRZNWzNs4kT62ljQzXU1mdLF5Fxdz1dff4l5r9FMmyYdp40mhl2nES1faGkiS3pb0EqrPWPcx9LNzIzBnvsUv/qLw3ei/uFXaLbrJ+03mT7WOmjbuhKZVcal3TNoVr06HSRZSbwfS1+rhgxae0G+OIlS1toboeu2U3pdyNROGriti6Ek4wrOxpq4zNhJan4JZ1ZNQlO9Da5TPZg0sget6jdhuk+otE8+U7Xq8/UvZowfO4lxQ5xo0UyP1QHPyqlUyt7RVrTqOLpCzp7Fwbm9+ernemhqa/HlJ5/y3r8+Z9JWpUDd2OYhiVd1/vPZZ3z22SfUamyAz3Xld9feUTZ8/tFX0n1twieffMTfPv6Ehf7K5uQtg5vywYd1UFP7UVr3L95/rxnLFT+IivCb4sIP330kHe8zPv3iM1oMWECSfL8Lb9G/nQ5zjz4ZXuHlImRFIHgBhKz8MV5EVgR/nNfZwfZ5WZfvX91L1/amfFu9JbP3qEKz/wpyIsNa7QYSeuUIjlZ2nJa7YBRHM8W5F76hQbgamzD9QhpFoZto8YsmeyJV9SKFkfTS02GObyKlET58Ubs5ywJVNR8Jh9FpqsuGaEmuDk+hXhNrgsoHv907SbuWRmwLfQixBzH4sB7TD8vh9SVyLmLdoAULT8jVMuG4GBmzQxG6KIvBHSUh2VIerLCULb1tsFRkXS5gZjcD+o5YzJCe5oz2OqXcRFp+2ns9hy9XJiDcNdICiwFrpFeleGg0w9BppTKtgMSqvgZY9NksrXmSdAZ30KD3ql+rqShhxaBf+KGRNruvJFBSVsT8XjrYjt2hWHvZaxnL1lxSvJb7tw3WboHDRvnZZONq9R++aNSWgDs5lJZlMMpWh0Gr5ezSyQz+6Ut+qNubwLv50o+IOAabazH2aDyFwZuoW6su448r71tpynm6tmzOhkvZFN3aiamxNYGqrjSvCiErAsELIGTljyFk5dXyNshKWVExJcUPubnPkya/GOMdUhnW/VnIsvKTmQtpBdlMdbJh6r775N7cStchS8gsjGWQrjFzLz7gzpYRfNnAhHlrN7NmzWo2bF1F58bVMXY/QkGYD3W0zThT/mM+LxTnDkasu3aPQzM6872WPas2bmT16jVs2DgPw+rf02NLOMRJslKzNTuiVQ0fZfEMtjLHfU88FN2gl4EhW4LldZkKWRmzVS7EZUrZ2sdWJStlLOhbg/9+WY3PvmvCpuDHwwok3DjHjs1eLJk3A6sWP2E9Zqu0tIhphro4LiwXGzg6rx9mzsufkRsojYEd1XGtOHclpdkPuHv7HsWFMbi0q8/4g3dUK+4xprc5048kSq9z8B7VA7WWjalbtwF6BmbUrFMbzzPSd1fhNdrX/4UZ/uUdmOMZ2qk3i05KZpd1DvX6GqwKVIX2L7jFyI7mkizmc36RLX/5+yfUa9xQOmZd6jesz38/+Bsz/BK5d2IuOhYjSXjFFaNCVgSCF0DIyh9DyMqr5U3Kyt0LR9h79NGghIn016jH6E2/3hdLlpUfTZyl3/sQvGog3aesYP/8sUxbf1ZakkA/HSPmXEwmZtd4fq6lxvBJE3AbPZqx4ycwaeJ4vI7dJDNoM7U1W3O8PE9ibhi9OhuzPugBxz2dqNvMlLHStm6j3Rg3YSKTJkxhx9UkSu7uw7CGJFS3y7MuxzHU2oopeyVZKQymp6ER3qFy20Ym/du3wnVb5YifrX1tMHeXZaWEmV1r02nSXgI2DEPdtBfKJM7Z7JjSl9bmXRjjNp5lm3cy07k1Dq6bpHWSrBjo4DC38jkdmz+QNr1WPkNWcpgoiZK+q7dqvpxMZjipYT1iD7nRvmhomXEwTr5W6Yqi/bDWssRP8sT4PRPRam7AMFdXXF0nsHz6RPQNtPGNKSXrohdaRo6U+1XBzd10sezE+SxIOemJbofhxKiGR2cHbcW4dT+iH5axol9dmhh2l+6nfExXRo4YxtBRY7h2rwDf8Xa07r7ylXaulRGyIhC8AEJW/hhCVl4tr1NWDs/vgtkjfVZu+Eygdj0rjkTKTShFBHu7U7+RMfsipPmiHCJvhXH/8cAgCkK8x/KDVGBGlUJpoj+2mlq0bDcI31tyjUYUfTX1mXo+ldK7+7FWN2aT9FpBQRQeg0aw7dJ98q9vooa07liFrITSo4M+S4OySQtchrGGHQF3lf9zZUkXcXNx41h0LqWRe9D70ZBtFbISy+C2FsqaleIInFtosPy8/BkvZWF3LUz6LSNPus7Uu+exbPoTOnOOSOvycbfTZJSX3Nk2GVeTxtjN9JfecziW1b5lqI+ytqMo8w6DW9eiYV95aH4B0/S16TLnqGKdjL9nf1o7r3iGrECk7zi+/tvH9J64i6CgIGm6yjSn2nzWzJ5LmSXcPzYLLZPBxKnakGL9F2HSdiJyndZFT0dqWwwjIjGRhLiruHX8L//+vpdi24urBmDYzbPinNe3jMO4/WiFaARM7orxkFWUV5BcXDkQwz5LpFdl7BlvQTOrcdyWjpmYmMCm6X2xXyqPZszDva0Ww9dcVOzzKhGyIhC8AEJW/hhCVl4tr1VW5tnTetSyymagkhS2TxuGqak5XbtY09q4IwsPqGoi4vxRa/QN7oefHvES7D2G7wy7cUfREpPLVO2vqCMVhIoILaW36KOhx4TjyvG4l7bMxUrDGPvuDli3NqGDyzxuZZfy8Op6fmpl9Iis3KBHe108zyRLM4UcnjOaNtqmdO3RBUsjE5zHbeR+aRklETvR/cGAbcqqEIWsDLI0Z/JOOVZJLuv629BIqw37bySTeGUnHfWbYdqhK/2GjsHWqiU2Kw9L2xXg3kGtYuhyyuU1tKyvzubAWI6vHoaejh72jj0Y5OpKn/baNOzmTjYPma6vhf3sR2Rlbj9Mn9kMJJPLsbmjqFvtg/LCF70OQ/G9lKZYu398B1q7rJGuRMn+We1p03+14nV+wgWc632l3O9ftTE1UaN+p4nSNRSy0tGATmMPKLaTBXOdmy0dph6SXufh0bkFLvPL/4/ymONoSNe5voq5gvjrjDH7peJamtsM5+jtTMoehmNnpM/Ks/J9f7UIWREIXgAhK38MISuvltcpK9kpsUQlpVb88i4nPuIiJ0+eITpFOa5HQWE2t26Gci/r6eeen3GP8LtxlAepzbgXSUyiKphcWQHxkXe4n1O5X86DSM6ePMmlG1EVolTyMI2IyLtUBJEtzScu5g7JuZU1OamxNzgVcJLrtytHqZTmZ3In4i4Z5aFWy4pIjI7ifqay2C8tSCYo8DR37itlJi8lijOnThN5P4eS/GRiU+S6izLux0SSWPF+y6R7EMLdB8q2lfiIS9L9OC3NS+vLcoiJjpOkooQHd+8Qm6zqDyKRk5xAVPzT9/NRUuIiuHbtmjQFqUZNyZSRfPcu0WmVfWXS7kUTk1oZkC8/IUqxX3BEEkWFOcQlJlEsXUNixG3iK/YrISn2NkmKm1hEzJ0bJGWUq1MR0VE3Sc5+5PkVPiBYdS0Z5Q+iKJvoyFgy819xhxUJISsCwQsgZOWPIWTl1fI6ZUUgeJMIWREIXoByWcnI+PWRDoLHEbLyahGyInhXELIiELwAsqyoq6uLQvd3cvjwYbS1tcV9e0UIWRG8KwhZEQheAFlWvvvuOxYuXMjatWvx8vIS029MGzduxMXFhWbNmlFU9PSoEMGfR8iK4F1ByIpA8AKEh4fTvn172rZti6WlpZhecJLv16hRoxQh9QUvn9cpK2mR59nqf7VyNNCjZN1l1fxVBN377Rq05IgABg0axOLDQaollSSd38KQUaPxjarsiPr28RC/dfPYfSpBNf9ySQv2w33hFuLLh/rIlCWzwX04i30uP/v+l5Nxk1WeK7mc8r/340DIikDwAsiFbUlJiZj+4CR4NbweWSkj5oI3retVo1H/dc8YvVLE3jEmUgHRmD23f1tWwvdOUxQon2mOIkEZ00xFPst7NZfWfcD4M5Uh618bJWkc3rKGs5GPjGp6Jqm4mf1Cr1mXVfMvl7vb3PikYXsulqcLKEtnSS99Gql14Uhoyq+OHiLmEHq1tFh98/Gouv8LCFkRCASCKsqrl5UCji0cReOatWnSrCbmEzY9VVhGnViLdZNm1G1ix4Gbv1XQQ+ju6dRs1gBjLUs2X1PGDZEpijvFoJ6a1K6lz6zTj9ZaFJGWmsojo5IpKy2mWFVZl5ORStbDZ9QklOSRmpLKY6NqS0soUrnzw8w0MnIr5ephzDE6NG/J4qOxFBRJP06KiyguqdxZni9SnDRdlXVZGWdFJjcrC2kXFWVkpaeSmpb1SN6fUoqKVGZWmCOty3yudMTsnsJP2k5cV7ylNJY6atNUx4mr95+snSwjMy2VzLxHjC/uKG1bmrPpEeEqyssiRboPOeVjxR8hKzWFtMyqITZCVgQCgaCK8uplJZuD69ex7/xd/JY5YzXm8dxAxXHnGNy2J9t37cexbRd8QlTB1n6FEJ+JNGjnxBRXR1zm+amWwpVt8xg6dCy9zWyYekIZ7S059Aj9bdtgZG5Ouw4u7LqoDBaXGbyLdu1tmeU5j75dLNHWt2DejiuS1iiJPrkZB3MjWluaYddtNKcilVJUdMuXbhb2uM3wYLCjNTq6prhvPkuhVPDvnNeP7z//nGZ6A7h+K5rpw+yYWZGYsZQ9rr1wWiAHdctnaid1hi2TMxWXsH9mX2x6TedulnRdMdeYPtgZO7v2WBjrY9NjDJdjZRnIYWmvrtiPmMrM4T1pY6iL3eA53Ml8uiZKlpWfDftxqyCTDSNMUTdw5kry42rz8F4QU3vbYWRqgbFVJxbvCVKKUbxKVuTovaVZHF07i+72dlhbm6NtbIvnzmuK51eSHs3qKYOwtbDGso0Nw+duRxVa5q1FyIpAIBBUUV5nnxX/Rd2eSGSYy4rBXRmw9LRUfl/DzrA9PjdeQFa2j6euzUCO715LF5thxCoqBrJZPtaZxYeP4mZmxpSzKdKiEHq0qovDmK1E3b/PpW0e6Ot0JCCqkOKwbXz8RTU6z/TmZkw8gRvH8EtDS/zTpYI45gBt6tZj5JJjJCQn4rtgGLqt+xOWAWVRB9D562dYDFpJaFQcIftm0qy2DnvDiyhMPkkXDU2WHk+QCvpU+ts0Z8TG8szFpWx0ssB04h7pdQFTO+sy3iuEwD3umFr15dxdOSBbAdvcemDVey4RiWmkJNzArU0jOozdrdh/lno9vq/bFd/zYcTdukgP7V9wnnFCPvhjxO7z4BdNc1z6WfOfv/6F9rPlEP+PUJDIWPtmGPaaRVjcA8IC1mGpbciaK0mS3Z2WZMUCb+llbvg22prbs+P8bTKzHnBq5UjqNumM/IjOeXZD3WQUUZlFZMScxtnKgpUB5eGA306ErAgEAkEV5XXKyuOJDEu5vm063QYsRc4MRP4V7Iw7cTBasfJXkRMZ/mw5gMT7N+nX0YJ1wZKtpJ3DxWEct5IjGaZvzKxLKaQcnMTPLTpxPUc6m2I0WRruFur0WHpZkpXt/KhmTICcDVGmIJhOrQ3wCs3g8mJnardxRe71Uiw3vRTcpGer5kz0kyQk9gD63xngHV3eJBKHi6E+0/ZJByoNp4+RMd5h8jvMUmRddttyRbmZ9H639LZRZV0uxrOXGi2btuK7Os3YE1le61HKw4flEWDzSY67i2cPfayGrZPmi5imo0nX2SeVqyUOz3DEzGllRW1QOXFHFvDtX/6FhtNcjhxeQct6NVlxsjIKb/pVL1rV1GRXpHSuEuXeW9xMMBuymZLMQKxbmrP5Th6lBQ8rkgs+TH9A0H4PNJrZcC5NzuvkRu2GukxfsYUTV2+Rnp3/1vctE7IiEAgEVZQ3ISuKYj4viv6mtWhu1AGXPr3paW9O9Wo/YWjrin9QZT+UZ6HIumzaCzk94Y5RXRmy7Ax3fGfhMme7dOwEBuga4XnhARFbRvGf7+thbWeHjY017TvaYqTWlK6LTpJzw5s6Wq0JULYKSaVxOL3tjdl4NZG9M7tQrU5LOnTogLW1De3trNFqosbIPRGUxR7E8GcTtkeq+mmUxjHUxgr3PXFQGEIvA0M2X5eH4WQwwE6dMdsq+6Vs79uBtlP2Sa/K8HT+hl/0OuLQ1gDnWfsrapvSIo4xrq8TXTu2x7lffyxb1qbzuG3SGmXW5W7zjis3lDi+YBBmvZ5OZBizbzrVa1sQoMrfeHBcW76u34UgVTzKhEPzaPzf6pi274CtdF9sO3TEzKA5tr1Xk5kcSHs1czZFSVdUlob3AjccHbrQ2aEnvRzMqd+4K2cfyHJVzKV9y+nbyYhmDRpjZt2b3Zfin9uP5m1AyIpAIBBUUd6YrBRlEXLlDH6+B9l38DD7189Ao6EWIxccICb51zvZKmTFpAdyisP0c/Ow7dmfEf1dWXtENo84+ukY4XExjayTc9Fs2ZYjtxJJSpSmpCiObN8iyVAS2dc2UUvTlOOPZF3u2dEIr5AMwjYMQcukD9fi7pEo7XcvNpy9m7YQGJVF8e09GNQwxvuRrMtD2rVlyl7p3JKs9NQzYEeEvCKXUe1b4bIiULGZtJJZnfQxnHpQel3A1E5qjFoXTck9SX7qNWHlhSxJDu7Qp0VTenjsJyHhHll5eWweaYnFIDnBoFJWHOZWPqej8wbQptfKp2Vllzs/GfQiuKKSJg4X4+roDVBum3/TGz1NXVaeipLuiXxfEjh/aCv7ToZRfO8k7VpZsu9eMYFLe1PbtDcXbyfwIC2b1Kvr0VOz4lhcCbFhwcSo5KcoJ4W5DlpoOiyV3tnbi5AVgUAgqKK8TlnZ72GNzqAFj/RZeYS0M7Ru2Qafm6qRKcnXGNrfgS2Xn87GG7RpGJ+26sBtuQWjMJoe1T/hE53ehCsc5xbdGrZg9PEkyQnice/YBqtOkzgYcJxN80ah3rQtW0PSKbi6hi/qq+MXI+8jkRNMpzbNmX0unZKMIFz09XEcOA//00dZMa4XLTQcOXk/n7Kb22n+uRobI1RxXEqi6WWozxjvaEk2Ehih0ZxO47yIzyng2FxnGkvvafXO/axbNJXa0nVqzZezLucz1rw+feZeVxziyEwHaus6Exp3h1GmjWg9YDZHAk6wZe0sdGp+xJf2HhSTx4QWTbCeqsxiLHN4hhPa9gsfSVCoJMp7DJ817lA5dFki69p6Gv27GoNWB1JcksX6CQ6YdhjC1kMn2L3Jkzbqmsw+cIey5BMY1NFje1IxV7wGUO8XU9bu9efIrg2MsmzGJ599y/47RVxe40pzfWtW+RzGf+8mupsaMXzFWaWIvqUIWREIBIIqyuuUleu+S5m17dizC7SMcOZNm8+FONVv8+Qghg90ZOuVp2UlLnA7g2es4L6iu0UZRxcPxX2pn/K4pUmsmTyNHaEp8hxlWTFsmTOOPj170H+4O75XExXL8+6eYtikmYSqmkpksVm1cCqHI5TVBYUJwSyfPIyezj0YOtaTwDvKjMQlCReZOmQ65++prrM0hQ2ec9h1URnX5daxdfTu3o3dVyVZKslm77JxOHTvxZz1Bzm8ZzFLjl2Vtipi96KJbPRTddDJv8Os4YPZLh0jP/kqHiOccerZh/mbDxPov5GpS7aQKQnO/ulTWHrwhnIfiRuH1zFr1fGn+qykXNrNEPcVRD1R5RKwZgIObiuV960sE19Jhvr06oHTQFe2HgtT3r+0G8wZP4szKWXSe8vCb+VUujs6MXTCQgLOncNr5hT85Z7GJQ8J8FnEACcnnPsMZMXOC291rYqMkBWBQCCoorxOWREI3iRCVgQCgaCKImRF8K4gZEUgEAiqKEJWBO8KQlYEAoGgiiJkRfCuIGRFIBAIqihCVgTvCkJWBAKBoIoiZEXwriBkRSAQCKooQlYE7wpCVgQCgaCKImRF8K4gZEUgEAiqKEJWBO8KQlYEAoGgiiJkRfCuIGRFIBAIqihCVgTvCkJWBAKBoIoiZEXwriBkRSAQCKooQlYE7wpCVgQCgaCKImRF8K4gZEUgEAiqKLKstGjRggsXLqiWCAT/u5iamrJz507V3NMIWREIBIK3EFlWGjduTJ8+ffDw8BCTmP5np6lTp/Ljjz+ye/du1X//0whZEQgEgreQvLw8hg4dip2dnZjE9D8/OTg4EBQUpPrvfxohKwKBQCAQCN5qhKwIBAKBQCB4qxGyIhAIBAKB4K1GyIpAIBAIBIK3GiErAoFAIBAI3mqErAgEAoFAIHirEbIiEAgEAoHgrUbIikAgEAgEgrcaISsCgUAgEAjeap4pK2ISk5jEJCYxiUlMb+GkkBUnacpXLRCTmMQkJjGJSUxieoumv7j9PzAkzLhgZxiEAAAAAElFTkSuQmCC;" vertex="1" parent="1">
          <mxGeometry x="170" y="50" width="555" height="278" as="geometry" />
        </mxCell>
        <mxCell id="HqbXLtlGMCv74YAIJCJz-4" value="" style="edgeStyle=orthogonalEdgeStyle;rounded=0;orthogonalLoop=1;jettySize=auto;html=1;" edge="1" parent="1" source="HqbXLtlGMCv74YAIJCJz-2" target="HqbXLtlGMCv74YAIJCJz-3">
          <mxGeometry relative="1" as="geometry" />
        </mxCell>
        <mxCell id="HqbXLtlGMCv74YAIJCJz-2" value="Start" style="strokeWidth=1;html=1;shape=mxgraph.flowchart.terminator;whiteSpace=wrap;" vertex="1" parent="1">
          <mxGeometry x="40" y="360" width="80" height="40" as="geometry" />
        </mxCell>
        <mxCell id="HqbXLtlGMCv74YAIJCJz-6" value="" style="edgeStyle=orthogonalEdgeStyle;rounded=0;orthogonalLoop=1;jettySize=auto;html=1;" edge="1" parent="1" source="HqbXLtlGMCv74YAIJCJz-3" target="HqbXLtlGMCv74YAIJCJz-5">
          <mxGeometry relative="1" as="geometry" />
        </mxCell>
        <mxCell id="HqbXLtlGMCv74YAIJCJz-3" value="Input File" style="shape=parallelogram;html=1;strokeWidth=1;perimeter=parallelogramPerimeter;whiteSpace=wrap;rounded=1;arcSize=12;size=0.23;" vertex="1" parent="1">
          <mxGeometry x="140" y="360" width="80" height="40" as="geometry" />
        </mxCell>
        <mxCell id="HqbXLtlGMCv74YAIJCJz-12" style="edgeStyle=orthogonalEdgeStyle;rounded=0;orthogonalLoop=1;jettySize=auto;html=1;entryX=0.003;entryY=0.409;entryDx=0;entryDy=0;entryPerimeter=0;" edge="1" parent="1" source="HqbXLtlGMCv74YAIJCJz-5" target="HqbXLtlGMCv74YAIJCJz-7">
          <mxGeometry relative="1" as="geometry">
            <mxPoint x="350" y="380" as="targetPoint" />
          </mxGeometry>
        </mxCell>
        <mxCell id="HqbXLtlGMCv74YAIJCJz-5" value="inisiasi int&amp;nbsp;&lt;div&gt;i = 0&lt;/div&gt;" style="rounded=0;whiteSpace=wrap;html=1;" vertex="1" parent="1">
          <mxGeometry x="240" y="360" width="80" height="40" as="geometry" />
        </mxCell>
        <mxCell id="HqbXLtlGMCv74YAIJCJz-14" style="edgeStyle=orthogonalEdgeStyle;rounded=0;orthogonalLoop=1;jettySize=auto;html=1;entryX=0.5;entryY=0;entryDx=0;entryDy=0;" edge="1" parent="1" source="HqbXLtlGMCv74YAIJCJz-7" target="HqbXLtlGMCv74YAIJCJz-13">
          <mxGeometry relative="1" as="geometry">
            <Array as="points">
              <mxPoint x="505" y="420" />
              <mxPoint x="610" y="420" />
            </Array>
          </mxGeometry>
        </mxCell>
        <mxCell id="HqbXLtlGMCv74YAIJCJz-7" value="&lt;font style=&quot;font-size: 12px;&quot;&gt;for stream[i]&lt;/font&gt;&lt;div style=&quot;&quot;&gt;&lt;font style=&quot;font-size: 12px;&quot;&gt;menghitung mean, std, median, jarakl, q1,q3,iqr,min, max, kurtosis, skewness, stasiun, channel, kelas&lt;/font&gt;&lt;/div&gt;" style="rounded=0;whiteSpace=wrap;html=1;align=left;" vertex="1" parent="1">
          <mxGeometry x="360" y="360" width="290" height="50" as="geometry" />
        </mxCell>
        <mxCell id="HqbXLtlGMCv74YAIJCJz-16" value="" style="edgeStyle=orthogonalEdgeStyle;rounded=0;orthogonalLoop=1;jettySize=auto;html=1;exitX=-0.009;exitY=0.385;exitDx=0;exitDy=0;exitPerimeter=0;" edge="1" parent="1" source="HqbXLtlGMCv74YAIJCJz-13" target="HqbXLtlGMCv74YAIJCJz-15">
          <mxGeometry relative="1" as="geometry" />
        </mxCell>
        <mxCell id="HqbXLtlGMCv74YAIJCJz-13" value="i = i + 1" style="rounded=0;whiteSpace=wrap;html=1;" vertex="1" parent="1">
          <mxGeometry x="570" y="440" width="80" height="40" as="geometry" />
        </mxCell>
        <mxCell id="HqbXLtlGMCv74YAIJCJz-19" value="" style="edgeStyle=orthogonalEdgeStyle;rounded=0;orthogonalLoop=1;jettySize=auto;html=1;" edge="1" parent="1" source="HqbXLtlGMCv74YAIJCJz-15" target="HqbXLtlGMCv74YAIJCJz-18">
          <mxGeometry relative="1" as="geometry" />
        </mxCell>
        <mxCell id="HqbXLtlGMCv74YAIJCJz-15" value="&lt;font style=&quot;font-size: 10px;&quot;&gt;i &amp;gt;&amp;nbsp;&lt;/font&gt;&lt;div&gt;&lt;font style=&quot;font-size: 10px;&quot;&gt;jumlah&lt;/font&gt;&lt;/div&gt;&lt;div&gt;&lt;font style=&quot;font-size: 10px;&quot;&gt;traces&lt;/font&gt;&lt;/div&gt;" style="strokeWidth=1;html=1;shape=mxgraph.flowchart.decision;whiteSpace=wrap;" vertex="1" parent="1">
          <mxGeometry x="407.5" y="420" width="72.5" height="70" as="geometry" />
        </mxCell>
        <mxCell id="HqbXLtlGMCv74YAIJCJz-17" value="yes" style="text;html=1;align=center;verticalAlign=middle;whiteSpace=wrap;rounded=0;" vertex="1" parent="1">
          <mxGeometry x="360" y="460" width="20" height="20" as="geometry" />
        </mxCell>
        <mxCell id="HqbXLtlGMCv74YAIJCJz-21" value="" style="edgeStyle=orthogonalEdgeStyle;rounded=0;orthogonalLoop=1;jettySize=auto;html=1;" edge="1" parent="1" source="HqbXLtlGMCv74YAIJCJz-18" target="HqbXLtlGMCv74YAIJCJz-20">
          <mxGeometry relative="1" as="geometry" />
        </mxCell>
        <mxCell id="HqbXLtlGMCv74YAIJCJz-18" value="fitur" style="shape=parallelogram;html=1;strokeWidth=1;perimeter=parallelogramPerimeter;whiteSpace=wrap;rounded=1;arcSize=12;size=0.23;" vertex="1" parent="1">
          <mxGeometry x="250" y="435" width="80" height="40" as="geometry" />
        </mxCell>
        <mxCell id="HqbXLtlGMCv74YAIJCJz-20" value="Selesai" style="strokeWidth=1;html=1;shape=mxgraph.flowchart.terminator;whiteSpace=wrap;" vertex="1" parent="1">
          <mxGeometry x="150" y="435" width="80" height="40" as="geometry" />
        </mxCell>
        <mxCell id="HqbXLtlGMCv74YAIJCJz-24" value="" style="edgeStyle=orthogonalEdgeStyle;rounded=0;orthogonalLoop=1;jettySize=auto;html=1;entryX=0;entryY=0.75;entryDx=0;entryDy=0;exitX=0.5;exitY=0;exitDx=0;exitDy=0;exitPerimeter=0;" edge="1" parent="1" source="HqbXLtlGMCv74YAIJCJz-15" target="HqbXLtlGMCv74YAIJCJz-7">
          <mxGeometry relative="1" as="geometry">
            <mxPoint x="418" y="465" as="sourcePoint" />
            <mxPoint x="331" y="465" as="targetPoint" />
            <Array as="points">
              <mxPoint x="340" y="420" />
              <mxPoint x="340" y="397" />
            </Array>
          </mxGeometry>
        </mxCell>
        <mxCell id="HqbXLtlGMCv74YAIJCJz-25" value="tidak" style="text;html=1;align=center;verticalAlign=middle;whiteSpace=wrap;rounded=0;" vertex="1" parent="1">
          <mxGeometry x="380" y="425" width="20" height="10" as="geometry" />
        </mxCell>
      </root>
    </mxGraphModel>
  </diagram>
</mxfile>
